G04 EAGLE Gerber RS-274X export*
G75*
%MOMM*%
%FSLAX34Y34*%
%LPD*%
%INSoldermask Bottom*%
%IPPOS*%
%AMOC8*
5,1,8,0,0,1.08239X$1,22.5*%
G01*
%ADD10R,1.203200X1.303200*%
%ADD11R,2.303200X2.303200*%
%ADD12C,3.203200*%
%ADD13R,1.303200X1.203200*%
%ADD14C,0.959600*%


D10*
X901700Y402200D03*
X901700Y385200D03*
D11*
X897450Y63500D03*
X842450Y63500D03*
D12*
X847050Y110500D03*
X847050Y16500D03*
D13*
X863600Y385200D03*
X863600Y402200D03*
X825500Y385200D03*
X825500Y402200D03*
X781050Y385200D03*
X781050Y402200D03*
X742950Y385200D03*
X742950Y402200D03*
X698500Y385200D03*
X698500Y402200D03*
X654050Y385200D03*
X654050Y402200D03*
X609600Y385200D03*
X609600Y402200D03*
X571500Y385200D03*
X571500Y402200D03*
D11*
X282800Y23300D03*
X240800Y23300D03*
X198800Y23300D03*
X156800Y23300D03*
X114800Y23300D03*
X72800Y23300D03*
X72800Y78300D03*
X198800Y78300D03*
X156800Y78300D03*
X114800Y78300D03*
X240800Y78300D03*
X282800Y78300D03*
D12*
X329800Y73700D03*
X25800Y73700D03*
D11*
X625700Y23300D03*
X583700Y23300D03*
X541700Y23300D03*
X499700Y23300D03*
X457700Y23300D03*
X415700Y23300D03*
X415700Y78300D03*
X541700Y78300D03*
X499700Y78300D03*
X457700Y78300D03*
X583700Y78300D03*
X625700Y78300D03*
D12*
X672700Y73700D03*
X368700Y73700D03*
D11*
X589600Y484700D03*
X631600Y484700D03*
X673600Y484700D03*
X715600Y484700D03*
X757600Y484700D03*
X799600Y484700D03*
X841600Y484700D03*
X883600Y484700D03*
X715600Y429700D03*
X757600Y429700D03*
X799600Y429700D03*
X841600Y429700D03*
X883600Y429700D03*
X589600Y429700D03*
X631600Y429700D03*
X673600Y429700D03*
D12*
X542600Y434300D03*
X930600Y434300D03*
D11*
X1236150Y63500D03*
X1291150Y63500D03*
D12*
X1286550Y16500D03*
X1286550Y110500D03*
D11*
X457200Y429700D03*
X457200Y484700D03*
D12*
X504200Y480100D03*
X410200Y480100D03*
D10*
X1460500Y105800D03*
X1460500Y122800D03*
D13*
X1498600Y122800D03*
X1498600Y105800D03*
X1536700Y122800D03*
X1536700Y105800D03*
X1581150Y122800D03*
X1581150Y105800D03*
X1619250Y122800D03*
X1619250Y105800D03*
X1663700Y122800D03*
X1663700Y105800D03*
X1708150Y122800D03*
X1708150Y105800D03*
X1752600Y122800D03*
X1752600Y105800D03*
X1790700Y122800D03*
X1790700Y105800D03*
D11*
X1825400Y484700D03*
X1867400Y484700D03*
X1909400Y484700D03*
X1951400Y484700D03*
X1993400Y484700D03*
X2035400Y484700D03*
X2035400Y429700D03*
X1909400Y429700D03*
X1951400Y429700D03*
X1993400Y429700D03*
X1867400Y429700D03*
X1825400Y429700D03*
D12*
X1778400Y434300D03*
X2082400Y434300D03*
D11*
X1482500Y484700D03*
X1524500Y484700D03*
X1566500Y484700D03*
X1608500Y484700D03*
X1650500Y484700D03*
X1692500Y484700D03*
X1692500Y429700D03*
X1566500Y429700D03*
X1608500Y429700D03*
X1650500Y429700D03*
X1524500Y429700D03*
X1482500Y429700D03*
D12*
X1435500Y434300D03*
X1739500Y434300D03*
D11*
X1772600Y23300D03*
X1730600Y23300D03*
X1688600Y23300D03*
X1646600Y23300D03*
X1604600Y23300D03*
X1562600Y23300D03*
X1520600Y23300D03*
X1478600Y23300D03*
X1646600Y78300D03*
X1604600Y78300D03*
X1562600Y78300D03*
X1520600Y78300D03*
X1478600Y78300D03*
X1772600Y78300D03*
X1730600Y78300D03*
X1688600Y78300D03*
D12*
X1819600Y73700D03*
X1431600Y73700D03*
D14*
X285750Y127000D03*
X808990Y119380D03*
X619125Y165100D03*
X793750Y161290D03*
X234950Y127000D03*
X800024Y114224D03*
X571500Y158468D03*
X781050Y158750D03*
X527050Y158750D03*
X768350Y152400D03*
X184150Y127000D03*
X777240Y111816D03*
X133350Y127000D03*
X763270Y105748D03*
X476250Y158750D03*
X755650Y144780D03*
X88900Y127000D03*
X751840Y102700D03*
X444500Y177800D03*
X742950Y138430D03*
X684530Y138430D03*
X313690Y160020D03*
X745056Y96632D03*
X638810Y248920D03*
X732508Y163830D03*
X265430Y160020D03*
X730250Y90170D03*
X593090Y252730D03*
X719585Y167866D03*
X209550Y161290D03*
X721535Y77295D03*
X549910Y254000D03*
X704215Y195994D03*
X160020Y162560D03*
X715010Y66040D03*
X505460Y251460D03*
X673100Y203200D03*
X109220Y162560D03*
X668020Y193040D03*
X457200Y254000D03*
X673100Y215900D03*
X336550Y127000D03*
X824060Y128440D03*
X698500Y132080D03*
X813656Y190445D03*
X977900Y288925D03*
X977900Y206375D03*
X1041400Y330200D03*
X807720Y355600D03*
X787400Y317500D03*
X875030Y265430D03*
X825500Y266700D03*
X825500Y215900D03*
X839470Y156210D03*
X852170Y237490D03*
X885190Y260350D03*
X859790Y229870D03*
X867410Y223520D03*
X873760Y232410D03*
X864870Y237490D03*
X895350Y247650D03*
X906780Y247650D03*
X918210Y234950D03*
X928370Y234950D03*
X938530Y234950D03*
X949960Y234950D03*
X960120Y234950D03*
X918210Y247650D03*
X929640Y247650D03*
X941070Y247650D03*
X952500Y247650D03*
X963930Y247650D03*
X962660Y260350D03*
X952500Y260350D03*
X942340Y260350D03*
X930910Y260350D03*
X919480Y260350D03*
X908050Y260350D03*
X896620Y260350D03*
X834390Y232410D03*
X843280Y224790D03*
X852170Y217170D03*
X861060Y209550D03*
X907794Y225425D03*
X949325Y215900D03*
X901700Y114300D03*
X901700Y355600D03*
X650875Y292100D03*
X876300Y292100D03*
X955040Y311150D03*
X927100Y308610D03*
X880110Y308610D03*
X938530Y191770D03*
X956310Y191770D03*
X622300Y368300D03*
X647700Y368300D03*
X673100Y368300D03*
X698500Y368300D03*
X736600Y368300D03*
X755650Y374650D03*
X768350Y374650D03*
X762868Y342900D03*
X787400Y330200D03*
X673100Y330200D03*
X901700Y330200D03*
X769620Y314960D03*
X825500Y292100D03*
X1219200Y114300D03*
X1130300Y206375D03*
X1130300Y288925D03*
X1225550Y228344D03*
X1270000Y215900D03*
X1300480Y152400D03*
X1323340Y190500D03*
X1254760Y229870D03*
X1282700Y241300D03*
X1268730Y351790D03*
X1248410Y278130D03*
X1240790Y284480D03*
X1234440Y275590D03*
X1201420Y260350D03*
X1188720Y275590D03*
X1178560Y275590D03*
X1168400Y275590D03*
X1158240Y275590D03*
X1148080Y275590D03*
X1189990Y260350D03*
X1178560Y260350D03*
X1167130Y260350D03*
X1155700Y260350D03*
X1144270Y260350D03*
X1145540Y247650D03*
X1155700Y247650D03*
X1165860Y247650D03*
X1177290Y247650D03*
X1188720Y247650D03*
X1211580Y247650D03*
X1273810Y275590D03*
X1264920Y283210D03*
X1256030Y290830D03*
X1247140Y298450D03*
X1371600Y152400D03*
X1457325Y215900D03*
X1346200Y17780D03*
X1257300Y275590D03*
X1384300Y38100D03*
X1155700Y228600D03*
X1168400Y228600D03*
X1181100Y228600D03*
X1231900Y241300D03*
X1238250Y250190D03*
X1252220Y250190D03*
X1244600Y241300D03*
X1408430Y219710D03*
X698500Y304800D03*
X711200Y317500D03*
X947420Y172720D03*
X1822450Y381000D03*
X1299210Y388620D03*
X1489075Y342900D03*
X1314450Y346710D03*
X1873250Y381000D03*
X1308176Y393776D03*
X1536700Y349532D03*
X1327150Y349250D03*
X1581150Y349250D03*
X1339850Y355600D03*
X1924050Y381000D03*
X1330960Y396184D03*
X1974850Y381000D03*
X1344930Y402252D03*
X1631950Y349250D03*
X1352550Y363220D03*
X2019300Y381000D03*
X1356360Y405300D03*
X1663700Y330200D03*
X1365250Y369570D03*
X1423670Y369570D03*
X1794510Y347980D03*
X1363144Y411368D03*
X1469390Y259080D03*
X1375692Y344170D03*
X1842770Y347980D03*
X1377950Y417830D03*
X1515110Y255270D03*
X1388615Y340134D03*
X1898650Y346710D03*
X1386665Y430705D03*
X1558290Y254000D03*
X1403985Y312006D03*
X1948180Y345440D03*
X1393190Y441960D03*
X1602740Y256540D03*
X1435100Y304800D03*
X1998980Y345440D03*
X1440180Y314960D03*
X1651000Y254000D03*
X1435100Y292100D03*
X1771650Y381000D03*
X1284140Y379560D03*
X1409700Y375920D03*
X1294544Y317555D03*
X1409700Y190500D03*
X1384300Y190500D03*
X1689100Y139700D03*
X1638300Y139700D03*
X1625600Y139700D03*
X1606550Y133350D03*
X1567180Y138430D03*
X1499870Y134620D03*
X1320800Y177800D03*
X1404620Y170180D03*
X1346200Y152400D03*
X1338580Y193040D03*
X1282700Y215900D03*
M02*
