G04 EAGLE Gerber RS-274X export*
G75*
%MOMM*%
%FSLAX34Y34*%
%LPD*%
%INSilkscreen Bottom*%
%IPPOS*%
%AMOC8*
5,1,8,0,0,1.08239X$1,22.5*%
G01*
%ADD10C,0.076200*%


D10*
X887603Y359325D02*
X887603Y357689D01*
X887605Y357611D01*
X887610Y357533D01*
X887620Y357456D01*
X887633Y357379D01*
X887649Y357303D01*
X887669Y357228D01*
X887693Y357154D01*
X887720Y357081D01*
X887751Y357009D01*
X887785Y356939D01*
X887822Y356871D01*
X887863Y356804D01*
X887907Y356739D01*
X887953Y356677D01*
X888003Y356617D01*
X888055Y356559D01*
X888110Y356504D01*
X888168Y356452D01*
X888228Y356402D01*
X888290Y356356D01*
X888355Y356312D01*
X888422Y356271D01*
X888490Y356234D01*
X888560Y356200D01*
X888632Y356169D01*
X888705Y356142D01*
X888779Y356118D01*
X888854Y356098D01*
X888930Y356082D01*
X889007Y356069D01*
X889084Y356059D01*
X889162Y356054D01*
X889240Y356052D01*
X893332Y356052D01*
X893410Y356054D01*
X893488Y356059D01*
X893565Y356069D01*
X893642Y356082D01*
X893718Y356098D01*
X893793Y356118D01*
X893867Y356142D01*
X893940Y356169D01*
X894012Y356200D01*
X894082Y356234D01*
X894151Y356271D01*
X894217Y356312D01*
X894282Y356356D01*
X894344Y356402D01*
X894404Y356452D01*
X894462Y356504D01*
X894517Y356559D01*
X894569Y356617D01*
X894619Y356677D01*
X894665Y356739D01*
X894709Y356804D01*
X894750Y356871D01*
X894787Y356939D01*
X894821Y357009D01*
X894852Y357081D01*
X894879Y357154D01*
X894903Y357228D01*
X894923Y357303D01*
X894939Y357379D01*
X894952Y357456D01*
X894962Y357533D01*
X894967Y357611D01*
X894969Y357689D01*
X894969Y359325D01*
X894969Y363729D02*
X887603Y363729D01*
X894969Y361683D02*
X894969Y365775D01*
X889240Y372359D02*
X889162Y372357D01*
X889084Y372352D01*
X889007Y372342D01*
X888930Y372329D01*
X888854Y372313D01*
X888779Y372293D01*
X888705Y372269D01*
X888632Y372242D01*
X888560Y372211D01*
X888490Y372177D01*
X888422Y372140D01*
X888355Y372099D01*
X888290Y372055D01*
X888228Y372009D01*
X888168Y371959D01*
X888110Y371907D01*
X888055Y371852D01*
X888003Y371794D01*
X887953Y371734D01*
X887907Y371672D01*
X887863Y371607D01*
X887822Y371541D01*
X887785Y371472D01*
X887751Y371402D01*
X887720Y371330D01*
X887693Y371257D01*
X887669Y371183D01*
X887649Y371108D01*
X887633Y371032D01*
X887620Y370955D01*
X887610Y370878D01*
X887605Y370800D01*
X887603Y370722D01*
X887605Y370608D01*
X887610Y370495D01*
X887620Y370381D01*
X887633Y370268D01*
X887650Y370156D01*
X887670Y370044D01*
X887694Y369933D01*
X887722Y369822D01*
X887753Y369713D01*
X887788Y369605D01*
X887827Y369498D01*
X887869Y369392D01*
X887914Y369288D01*
X887963Y369185D01*
X888016Y369084D01*
X888071Y368985D01*
X888130Y368887D01*
X888192Y368792D01*
X888257Y368699D01*
X888325Y368607D01*
X888396Y368519D01*
X888470Y368432D01*
X888547Y368348D01*
X888626Y368267D01*
X893332Y368471D02*
X893410Y368473D01*
X893488Y368478D01*
X893565Y368488D01*
X893642Y368501D01*
X893718Y368517D01*
X893793Y368537D01*
X893867Y368561D01*
X893940Y368588D01*
X894012Y368619D01*
X894082Y368653D01*
X894151Y368690D01*
X894217Y368731D01*
X894282Y368775D01*
X894344Y368821D01*
X894404Y368871D01*
X894462Y368923D01*
X894517Y368978D01*
X894569Y369036D01*
X894619Y369096D01*
X894665Y369158D01*
X894709Y369223D01*
X894750Y369290D01*
X894787Y369358D01*
X894821Y369428D01*
X894852Y369500D01*
X894879Y369573D01*
X894903Y369647D01*
X894923Y369722D01*
X894939Y369798D01*
X894952Y369875D01*
X894962Y369952D01*
X894967Y370030D01*
X894969Y370108D01*
X894967Y370218D01*
X894961Y370327D01*
X894951Y370437D01*
X894938Y370545D01*
X894920Y370654D01*
X894899Y370761D01*
X894873Y370868D01*
X894844Y370974D01*
X894812Y371079D01*
X894775Y371182D01*
X894735Y371284D01*
X894691Y371385D01*
X894643Y371484D01*
X894593Y371581D01*
X894538Y371676D01*
X894480Y371769D01*
X894419Y371860D01*
X894355Y371949D01*
X891899Y369290D02*
X891941Y369223D01*
X891985Y369158D01*
X892033Y369096D01*
X892083Y369036D01*
X892136Y368978D01*
X892192Y368923D01*
X892251Y368871D01*
X892311Y368821D01*
X892375Y368774D01*
X892440Y368731D01*
X892507Y368690D01*
X892576Y368653D01*
X892647Y368619D01*
X892719Y368588D01*
X892793Y368561D01*
X892867Y368537D01*
X892943Y368517D01*
X893020Y368501D01*
X893097Y368488D01*
X893175Y368478D01*
X893254Y368473D01*
X893332Y368471D01*
X890672Y371541D02*
X890630Y371607D01*
X890586Y371672D01*
X890539Y371734D01*
X890488Y371794D01*
X890435Y371852D01*
X890379Y371907D01*
X890321Y371960D01*
X890260Y372009D01*
X890197Y372056D01*
X890132Y372099D01*
X890065Y372140D01*
X889996Y372177D01*
X889925Y372211D01*
X889853Y372242D01*
X889779Y372269D01*
X889704Y372293D01*
X889629Y372313D01*
X889552Y372329D01*
X889475Y372342D01*
X889397Y372352D01*
X889318Y372357D01*
X889240Y372359D01*
X890672Y371541D02*
X891900Y369290D01*
X894969Y375633D02*
X887603Y375633D01*
X894969Y375633D02*
X894969Y377679D01*
X894967Y377768D01*
X894961Y377857D01*
X894951Y377946D01*
X894938Y378034D01*
X894921Y378122D01*
X894899Y378209D01*
X894874Y378294D01*
X894846Y378379D01*
X894813Y378462D01*
X894777Y378544D01*
X894738Y378624D01*
X894695Y378702D01*
X894649Y378778D01*
X894599Y378853D01*
X894546Y378925D01*
X894490Y378994D01*
X894431Y379061D01*
X894370Y379126D01*
X894305Y379187D01*
X894238Y379246D01*
X894169Y379302D01*
X894097Y379355D01*
X894022Y379405D01*
X893946Y379451D01*
X893868Y379494D01*
X893788Y379533D01*
X893706Y379569D01*
X893623Y379602D01*
X893538Y379630D01*
X893453Y379655D01*
X893366Y379677D01*
X893278Y379694D01*
X893190Y379707D01*
X893101Y379717D01*
X893012Y379723D01*
X892923Y379725D01*
X892834Y379723D01*
X892745Y379717D01*
X892656Y379707D01*
X892568Y379694D01*
X892480Y379677D01*
X892393Y379655D01*
X892308Y379630D01*
X892223Y379602D01*
X892140Y379569D01*
X892058Y379533D01*
X891978Y379494D01*
X891900Y379451D01*
X891824Y379405D01*
X891749Y379355D01*
X891677Y379302D01*
X891608Y379246D01*
X891541Y379187D01*
X891476Y379126D01*
X891415Y379061D01*
X891356Y378994D01*
X891300Y378925D01*
X891247Y378853D01*
X891197Y378778D01*
X891151Y378702D01*
X891108Y378624D01*
X891069Y378544D01*
X891033Y378462D01*
X891000Y378379D01*
X890972Y378294D01*
X890947Y378209D01*
X890925Y378122D01*
X890908Y378034D01*
X890895Y377946D01*
X890885Y377857D01*
X890879Y377768D01*
X890877Y377679D01*
X890877Y375633D01*
X890877Y378088D02*
X887603Y379725D01*
X887603Y383157D02*
X887603Y386430D01*
X887603Y383157D02*
X894969Y383157D01*
X894969Y386430D01*
X891695Y385612D02*
X891695Y383157D01*
X894969Y389497D02*
X887603Y389497D01*
X894969Y389497D02*
X894969Y392770D01*
X891695Y392770D02*
X891695Y389497D01*
X893332Y395577D02*
X894969Y397623D01*
X887603Y397623D01*
X887603Y395577D02*
X887603Y399669D01*
X877697Y389777D02*
X870331Y389777D01*
X877697Y387731D02*
X877697Y391823D01*
X870331Y394818D02*
X870331Y398092D01*
X870331Y394818D02*
X877697Y394818D01*
X877697Y398092D01*
X874423Y397273D02*
X874423Y394818D01*
X877697Y401221D02*
X870331Y401221D01*
X873605Y403676D02*
X877697Y401221D01*
X873605Y403676D02*
X877697Y406131D01*
X870331Y406131D01*
X870331Y410038D02*
X877697Y410038D01*
X877697Y412084D01*
X877695Y412173D01*
X877689Y412262D01*
X877679Y412351D01*
X877666Y412439D01*
X877649Y412527D01*
X877627Y412614D01*
X877602Y412699D01*
X877574Y412784D01*
X877541Y412867D01*
X877505Y412949D01*
X877466Y413029D01*
X877423Y413107D01*
X877377Y413183D01*
X877327Y413258D01*
X877274Y413330D01*
X877218Y413399D01*
X877159Y413466D01*
X877098Y413531D01*
X877033Y413592D01*
X876966Y413651D01*
X876897Y413707D01*
X876825Y413760D01*
X876750Y413810D01*
X876674Y413856D01*
X876596Y413899D01*
X876516Y413938D01*
X876434Y413974D01*
X876351Y414007D01*
X876266Y414035D01*
X876181Y414060D01*
X876094Y414082D01*
X876006Y414099D01*
X875918Y414112D01*
X875829Y414122D01*
X875740Y414128D01*
X875651Y414130D01*
X875562Y414128D01*
X875473Y414122D01*
X875384Y414112D01*
X875296Y414099D01*
X875208Y414082D01*
X875121Y414060D01*
X875036Y414035D01*
X874951Y414007D01*
X874868Y413974D01*
X874786Y413938D01*
X874706Y413899D01*
X874628Y413856D01*
X874552Y413810D01*
X874477Y413760D01*
X874405Y413707D01*
X874336Y413651D01*
X874269Y413592D01*
X874204Y413531D01*
X874143Y413466D01*
X874084Y413399D01*
X874028Y413330D01*
X873975Y413258D01*
X873925Y413183D01*
X873879Y413107D01*
X873836Y413029D01*
X873797Y412949D01*
X873761Y412867D01*
X873728Y412784D01*
X873700Y412699D01*
X873675Y412614D01*
X873653Y412527D01*
X873636Y412439D01*
X873623Y412351D01*
X873613Y412262D01*
X873607Y412173D01*
X873605Y412084D01*
X873605Y410038D01*
X870331Y417287D02*
X877697Y417287D01*
X877697Y419333D01*
X877695Y419422D01*
X877689Y419511D01*
X877679Y419600D01*
X877666Y419688D01*
X877649Y419776D01*
X877627Y419863D01*
X877602Y419948D01*
X877574Y420033D01*
X877541Y420116D01*
X877505Y420198D01*
X877466Y420278D01*
X877423Y420356D01*
X877377Y420432D01*
X877327Y420507D01*
X877274Y420579D01*
X877218Y420648D01*
X877159Y420715D01*
X877098Y420780D01*
X877033Y420841D01*
X876966Y420900D01*
X876897Y420956D01*
X876825Y421009D01*
X876750Y421059D01*
X876674Y421105D01*
X876596Y421148D01*
X876516Y421187D01*
X876434Y421223D01*
X876351Y421256D01*
X876266Y421284D01*
X876181Y421309D01*
X876094Y421331D01*
X876006Y421348D01*
X875918Y421361D01*
X875829Y421371D01*
X875740Y421377D01*
X875651Y421379D01*
X875562Y421377D01*
X875473Y421371D01*
X875384Y421361D01*
X875296Y421348D01*
X875208Y421331D01*
X875121Y421309D01*
X875036Y421284D01*
X874951Y421256D01*
X874868Y421223D01*
X874786Y421187D01*
X874706Y421148D01*
X874628Y421105D01*
X874552Y421059D01*
X874477Y421009D01*
X874405Y420956D01*
X874336Y420900D01*
X874269Y420841D01*
X874204Y420780D01*
X874143Y420715D01*
X874084Y420648D01*
X874028Y420579D01*
X873975Y420507D01*
X873925Y420432D01*
X873879Y420356D01*
X873836Y420278D01*
X873797Y420198D01*
X873761Y420116D01*
X873728Y420033D01*
X873700Y419948D01*
X873675Y419863D01*
X873653Y419776D01*
X873636Y419688D01*
X873623Y419600D01*
X873613Y419511D01*
X873607Y419422D01*
X873605Y419333D01*
X873605Y417287D01*
X873605Y419742D02*
X870331Y421379D01*
X872377Y424551D02*
X872466Y424553D01*
X872555Y424559D01*
X872644Y424569D01*
X872732Y424582D01*
X872820Y424599D01*
X872907Y424621D01*
X872992Y424646D01*
X873077Y424674D01*
X873160Y424707D01*
X873242Y424743D01*
X873322Y424782D01*
X873400Y424825D01*
X873476Y424871D01*
X873551Y424921D01*
X873623Y424974D01*
X873692Y425030D01*
X873759Y425089D01*
X873824Y425150D01*
X873885Y425215D01*
X873944Y425282D01*
X874000Y425351D01*
X874053Y425423D01*
X874103Y425498D01*
X874149Y425574D01*
X874192Y425652D01*
X874231Y425732D01*
X874267Y425814D01*
X874300Y425897D01*
X874328Y425982D01*
X874353Y426067D01*
X874375Y426154D01*
X874392Y426242D01*
X874405Y426330D01*
X874415Y426419D01*
X874421Y426508D01*
X874423Y426597D01*
X874421Y426686D01*
X874415Y426775D01*
X874405Y426864D01*
X874392Y426952D01*
X874375Y427040D01*
X874353Y427127D01*
X874328Y427212D01*
X874300Y427297D01*
X874267Y427380D01*
X874231Y427462D01*
X874192Y427542D01*
X874149Y427620D01*
X874103Y427696D01*
X874053Y427771D01*
X874000Y427843D01*
X873944Y427912D01*
X873885Y427979D01*
X873824Y428044D01*
X873759Y428105D01*
X873692Y428164D01*
X873623Y428220D01*
X873551Y428273D01*
X873476Y428323D01*
X873400Y428369D01*
X873322Y428412D01*
X873242Y428451D01*
X873160Y428487D01*
X873077Y428520D01*
X872992Y428548D01*
X872907Y428573D01*
X872820Y428595D01*
X872732Y428612D01*
X872644Y428625D01*
X872555Y428635D01*
X872466Y428641D01*
X872377Y428643D01*
X872288Y428641D01*
X872199Y428635D01*
X872110Y428625D01*
X872022Y428612D01*
X871934Y428595D01*
X871847Y428573D01*
X871762Y428548D01*
X871677Y428520D01*
X871594Y428487D01*
X871512Y428451D01*
X871432Y428412D01*
X871354Y428369D01*
X871278Y428323D01*
X871203Y428273D01*
X871131Y428220D01*
X871062Y428164D01*
X870995Y428105D01*
X870930Y428044D01*
X870869Y427979D01*
X870810Y427912D01*
X870754Y427843D01*
X870701Y427771D01*
X870651Y427696D01*
X870605Y427620D01*
X870562Y427542D01*
X870523Y427462D01*
X870487Y427380D01*
X870454Y427297D01*
X870426Y427212D01*
X870401Y427127D01*
X870379Y427040D01*
X870362Y426952D01*
X870349Y426864D01*
X870339Y426775D01*
X870333Y426686D01*
X870331Y426597D01*
X870333Y426508D01*
X870339Y426419D01*
X870349Y426330D01*
X870362Y426242D01*
X870379Y426154D01*
X870401Y426067D01*
X870426Y425982D01*
X870454Y425897D01*
X870487Y425814D01*
X870523Y425732D01*
X870562Y425652D01*
X870605Y425574D01*
X870651Y425498D01*
X870701Y425423D01*
X870754Y425351D01*
X870810Y425282D01*
X870869Y425215D01*
X870930Y425150D01*
X870995Y425089D01*
X871062Y425030D01*
X871131Y424974D01*
X871203Y424921D01*
X871278Y424871D01*
X871354Y424825D01*
X871432Y424782D01*
X871512Y424743D01*
X871594Y424707D01*
X871677Y424674D01*
X871762Y424646D01*
X871847Y424621D01*
X871934Y424599D01*
X872022Y424582D01*
X872110Y424569D01*
X872199Y424559D01*
X872288Y424553D01*
X872377Y424551D01*
X876060Y424960D02*
X876139Y424962D01*
X876218Y424968D01*
X876297Y424977D01*
X876375Y424990D01*
X876452Y425008D01*
X876528Y425028D01*
X876603Y425053D01*
X876677Y425081D01*
X876750Y425112D01*
X876821Y425148D01*
X876890Y425186D01*
X876957Y425228D01*
X877022Y425273D01*
X877085Y425321D01*
X877146Y425372D01*
X877203Y425426D01*
X877259Y425482D01*
X877311Y425541D01*
X877361Y425603D01*
X877407Y425667D01*
X877451Y425733D01*
X877491Y425801D01*
X877527Y425871D01*
X877561Y425943D01*
X877591Y426017D01*
X877617Y426091D01*
X877640Y426167D01*
X877658Y426244D01*
X877674Y426321D01*
X877685Y426400D01*
X877693Y426478D01*
X877697Y426557D01*
X877697Y426637D01*
X877693Y426716D01*
X877685Y426794D01*
X877674Y426873D01*
X877658Y426950D01*
X877640Y427027D01*
X877617Y427103D01*
X877591Y427177D01*
X877561Y427251D01*
X877527Y427323D01*
X877491Y427393D01*
X877451Y427461D01*
X877407Y427527D01*
X877361Y427591D01*
X877311Y427653D01*
X877259Y427712D01*
X877203Y427768D01*
X877146Y427822D01*
X877085Y427873D01*
X877022Y427921D01*
X876957Y427966D01*
X876890Y428008D01*
X876821Y428046D01*
X876750Y428082D01*
X876677Y428113D01*
X876603Y428141D01*
X876528Y428166D01*
X876452Y428186D01*
X876375Y428204D01*
X876297Y428217D01*
X876218Y428226D01*
X876139Y428232D01*
X876060Y428234D01*
X875981Y428232D01*
X875902Y428226D01*
X875823Y428217D01*
X875745Y428204D01*
X875668Y428186D01*
X875592Y428166D01*
X875517Y428141D01*
X875443Y428113D01*
X875370Y428082D01*
X875299Y428046D01*
X875230Y428008D01*
X875163Y427966D01*
X875098Y427921D01*
X875035Y427873D01*
X874974Y427822D01*
X874917Y427768D01*
X874861Y427712D01*
X874809Y427653D01*
X874759Y427591D01*
X874713Y427527D01*
X874669Y427461D01*
X874629Y427393D01*
X874593Y427323D01*
X874559Y427251D01*
X874529Y427177D01*
X874503Y427103D01*
X874480Y427027D01*
X874462Y426950D01*
X874446Y426873D01*
X874435Y426794D01*
X874427Y426716D01*
X874423Y426637D01*
X874423Y426557D01*
X874427Y426478D01*
X874435Y426400D01*
X874446Y426321D01*
X874462Y426244D01*
X874480Y426167D01*
X874503Y426091D01*
X874529Y426017D01*
X874559Y425943D01*
X874593Y425871D01*
X874629Y425801D01*
X874669Y425733D01*
X874713Y425667D01*
X874759Y425603D01*
X874809Y425541D01*
X874861Y425482D01*
X874917Y425426D01*
X874974Y425372D01*
X875035Y425321D01*
X875098Y425273D01*
X875163Y425228D01*
X875230Y425186D01*
X875299Y425148D01*
X875370Y425112D01*
X875443Y425081D01*
X875517Y425053D01*
X875592Y425028D01*
X875668Y425008D01*
X875745Y424990D01*
X875823Y424977D01*
X875902Y424968D01*
X875981Y424962D01*
X876060Y424960D01*
X839597Y389777D02*
X832231Y389777D01*
X839597Y387731D02*
X839597Y391823D01*
X832231Y394818D02*
X832231Y398092D01*
X832231Y394818D02*
X839597Y394818D01*
X839597Y398092D01*
X836323Y397273D02*
X836323Y394818D01*
X839597Y401221D02*
X832231Y401221D01*
X835505Y403676D02*
X839597Y401221D01*
X835505Y403676D02*
X839597Y406131D01*
X832231Y406131D01*
X832231Y410038D02*
X839597Y410038D01*
X839597Y412084D01*
X839595Y412173D01*
X839589Y412262D01*
X839579Y412351D01*
X839566Y412439D01*
X839549Y412527D01*
X839527Y412614D01*
X839502Y412699D01*
X839474Y412784D01*
X839441Y412867D01*
X839405Y412949D01*
X839366Y413029D01*
X839323Y413107D01*
X839277Y413183D01*
X839227Y413258D01*
X839174Y413330D01*
X839118Y413399D01*
X839059Y413466D01*
X838998Y413531D01*
X838933Y413592D01*
X838866Y413651D01*
X838797Y413707D01*
X838725Y413760D01*
X838650Y413810D01*
X838574Y413856D01*
X838496Y413899D01*
X838416Y413938D01*
X838334Y413974D01*
X838251Y414007D01*
X838166Y414035D01*
X838081Y414060D01*
X837994Y414082D01*
X837906Y414099D01*
X837818Y414112D01*
X837729Y414122D01*
X837640Y414128D01*
X837551Y414130D01*
X837462Y414128D01*
X837373Y414122D01*
X837284Y414112D01*
X837196Y414099D01*
X837108Y414082D01*
X837021Y414060D01*
X836936Y414035D01*
X836851Y414007D01*
X836768Y413974D01*
X836686Y413938D01*
X836606Y413899D01*
X836528Y413856D01*
X836452Y413810D01*
X836377Y413760D01*
X836305Y413707D01*
X836236Y413651D01*
X836169Y413592D01*
X836104Y413531D01*
X836043Y413466D01*
X835984Y413399D01*
X835928Y413330D01*
X835875Y413258D01*
X835825Y413183D01*
X835779Y413107D01*
X835736Y413029D01*
X835697Y412949D01*
X835661Y412867D01*
X835628Y412784D01*
X835600Y412699D01*
X835575Y412614D01*
X835553Y412527D01*
X835536Y412439D01*
X835523Y412351D01*
X835513Y412262D01*
X835507Y412173D01*
X835505Y412084D01*
X835505Y410038D01*
X832231Y417287D02*
X839597Y417287D01*
X839597Y419333D01*
X839595Y419422D01*
X839589Y419511D01*
X839579Y419600D01*
X839566Y419688D01*
X839549Y419776D01*
X839527Y419863D01*
X839502Y419948D01*
X839474Y420033D01*
X839441Y420116D01*
X839405Y420198D01*
X839366Y420278D01*
X839323Y420356D01*
X839277Y420432D01*
X839227Y420507D01*
X839174Y420579D01*
X839118Y420648D01*
X839059Y420715D01*
X838998Y420780D01*
X838933Y420841D01*
X838866Y420900D01*
X838797Y420956D01*
X838725Y421009D01*
X838650Y421059D01*
X838574Y421105D01*
X838496Y421148D01*
X838416Y421187D01*
X838334Y421223D01*
X838251Y421256D01*
X838166Y421284D01*
X838081Y421309D01*
X837994Y421331D01*
X837906Y421348D01*
X837818Y421361D01*
X837729Y421371D01*
X837640Y421377D01*
X837551Y421379D01*
X837462Y421377D01*
X837373Y421371D01*
X837284Y421361D01*
X837196Y421348D01*
X837108Y421331D01*
X837021Y421309D01*
X836936Y421284D01*
X836851Y421256D01*
X836768Y421223D01*
X836686Y421187D01*
X836606Y421148D01*
X836528Y421105D01*
X836452Y421059D01*
X836377Y421009D01*
X836305Y420956D01*
X836236Y420900D01*
X836169Y420841D01*
X836104Y420780D01*
X836043Y420715D01*
X835984Y420648D01*
X835928Y420579D01*
X835875Y420507D01*
X835825Y420432D01*
X835779Y420356D01*
X835736Y420278D01*
X835697Y420198D01*
X835661Y420116D01*
X835628Y420033D01*
X835600Y419948D01*
X835575Y419863D01*
X835553Y419776D01*
X835536Y419688D01*
X835523Y419600D01*
X835513Y419511D01*
X835507Y419422D01*
X835505Y419333D01*
X835505Y417287D01*
X835505Y419742D02*
X832231Y421379D01*
X838779Y424551D02*
X839597Y424551D01*
X839597Y428643D01*
X832231Y426597D01*
X795147Y389777D02*
X787781Y389777D01*
X795147Y387731D02*
X795147Y391823D01*
X787781Y394818D02*
X787781Y398092D01*
X787781Y394818D02*
X795147Y394818D01*
X795147Y398092D01*
X791873Y397273D02*
X791873Y394818D01*
X795147Y401221D02*
X787781Y401221D01*
X791055Y403676D02*
X795147Y401221D01*
X791055Y403676D02*
X795147Y406131D01*
X787781Y406131D01*
X787781Y410038D02*
X795147Y410038D01*
X795147Y412084D01*
X795145Y412173D01*
X795139Y412262D01*
X795129Y412351D01*
X795116Y412439D01*
X795099Y412527D01*
X795077Y412614D01*
X795052Y412699D01*
X795024Y412784D01*
X794991Y412867D01*
X794955Y412949D01*
X794916Y413029D01*
X794873Y413107D01*
X794827Y413183D01*
X794777Y413258D01*
X794724Y413330D01*
X794668Y413399D01*
X794609Y413466D01*
X794548Y413531D01*
X794483Y413592D01*
X794416Y413651D01*
X794347Y413707D01*
X794275Y413760D01*
X794200Y413810D01*
X794124Y413856D01*
X794046Y413899D01*
X793966Y413938D01*
X793884Y413974D01*
X793801Y414007D01*
X793716Y414035D01*
X793631Y414060D01*
X793544Y414082D01*
X793456Y414099D01*
X793368Y414112D01*
X793279Y414122D01*
X793190Y414128D01*
X793101Y414130D01*
X793012Y414128D01*
X792923Y414122D01*
X792834Y414112D01*
X792746Y414099D01*
X792658Y414082D01*
X792571Y414060D01*
X792486Y414035D01*
X792401Y414007D01*
X792318Y413974D01*
X792236Y413938D01*
X792156Y413899D01*
X792078Y413856D01*
X792002Y413810D01*
X791927Y413760D01*
X791855Y413707D01*
X791786Y413651D01*
X791719Y413592D01*
X791654Y413531D01*
X791593Y413466D01*
X791534Y413399D01*
X791478Y413330D01*
X791425Y413258D01*
X791375Y413183D01*
X791329Y413107D01*
X791286Y413029D01*
X791247Y412949D01*
X791211Y412867D01*
X791178Y412784D01*
X791150Y412699D01*
X791125Y412614D01*
X791103Y412527D01*
X791086Y412439D01*
X791073Y412351D01*
X791063Y412262D01*
X791057Y412173D01*
X791055Y412084D01*
X791055Y410038D01*
X787781Y417287D02*
X795147Y417287D01*
X795147Y419333D01*
X795145Y419422D01*
X795139Y419511D01*
X795129Y419600D01*
X795116Y419688D01*
X795099Y419776D01*
X795077Y419863D01*
X795052Y419948D01*
X795024Y420033D01*
X794991Y420116D01*
X794955Y420198D01*
X794916Y420278D01*
X794873Y420356D01*
X794827Y420432D01*
X794777Y420507D01*
X794724Y420579D01*
X794668Y420648D01*
X794609Y420715D01*
X794548Y420780D01*
X794483Y420841D01*
X794416Y420900D01*
X794347Y420956D01*
X794275Y421009D01*
X794200Y421059D01*
X794124Y421105D01*
X794046Y421148D01*
X793966Y421187D01*
X793884Y421223D01*
X793801Y421256D01*
X793716Y421284D01*
X793631Y421309D01*
X793544Y421331D01*
X793456Y421348D01*
X793368Y421361D01*
X793279Y421371D01*
X793190Y421377D01*
X793101Y421379D01*
X793012Y421377D01*
X792923Y421371D01*
X792834Y421361D01*
X792746Y421348D01*
X792658Y421331D01*
X792571Y421309D01*
X792486Y421284D01*
X792401Y421256D01*
X792318Y421223D01*
X792236Y421187D01*
X792156Y421148D01*
X792078Y421105D01*
X792002Y421059D01*
X791927Y421009D01*
X791855Y420956D01*
X791786Y420900D01*
X791719Y420841D01*
X791654Y420780D01*
X791593Y420715D01*
X791534Y420648D01*
X791478Y420579D01*
X791425Y420507D01*
X791375Y420432D01*
X791329Y420356D01*
X791286Y420278D01*
X791247Y420198D01*
X791211Y420116D01*
X791178Y420033D01*
X791150Y419948D01*
X791125Y419863D01*
X791103Y419776D01*
X791086Y419688D01*
X791073Y419600D01*
X791063Y419511D01*
X791057Y419422D01*
X791055Y419333D01*
X791055Y417287D01*
X791055Y419742D02*
X787781Y421379D01*
X791873Y424551D02*
X791873Y427006D01*
X791871Y427084D01*
X791866Y427162D01*
X791856Y427239D01*
X791843Y427316D01*
X791827Y427392D01*
X791807Y427467D01*
X791783Y427541D01*
X791756Y427614D01*
X791725Y427686D01*
X791691Y427756D01*
X791654Y427825D01*
X791613Y427891D01*
X791569Y427956D01*
X791523Y428018D01*
X791473Y428078D01*
X791421Y428136D01*
X791366Y428191D01*
X791308Y428243D01*
X791248Y428293D01*
X791186Y428339D01*
X791121Y428383D01*
X791055Y428424D01*
X790986Y428461D01*
X790916Y428495D01*
X790844Y428526D01*
X790771Y428553D01*
X790697Y428577D01*
X790622Y428597D01*
X790546Y428613D01*
X790469Y428626D01*
X790392Y428636D01*
X790314Y428641D01*
X790236Y428643D01*
X789827Y428643D01*
X789738Y428641D01*
X789649Y428635D01*
X789560Y428625D01*
X789472Y428612D01*
X789384Y428595D01*
X789297Y428573D01*
X789212Y428548D01*
X789127Y428520D01*
X789044Y428487D01*
X788962Y428451D01*
X788882Y428412D01*
X788804Y428369D01*
X788728Y428323D01*
X788653Y428273D01*
X788581Y428220D01*
X788512Y428164D01*
X788445Y428105D01*
X788380Y428044D01*
X788319Y427979D01*
X788260Y427912D01*
X788204Y427843D01*
X788151Y427771D01*
X788101Y427696D01*
X788055Y427620D01*
X788012Y427542D01*
X787973Y427462D01*
X787937Y427380D01*
X787904Y427297D01*
X787876Y427212D01*
X787851Y427127D01*
X787829Y427040D01*
X787812Y426952D01*
X787799Y426864D01*
X787789Y426775D01*
X787783Y426686D01*
X787781Y426597D01*
X787783Y426508D01*
X787789Y426419D01*
X787799Y426330D01*
X787812Y426242D01*
X787829Y426154D01*
X787851Y426067D01*
X787876Y425982D01*
X787904Y425897D01*
X787937Y425814D01*
X787973Y425732D01*
X788012Y425652D01*
X788055Y425574D01*
X788101Y425498D01*
X788151Y425423D01*
X788204Y425351D01*
X788260Y425282D01*
X788319Y425215D01*
X788380Y425150D01*
X788445Y425089D01*
X788512Y425030D01*
X788581Y424974D01*
X788653Y424921D01*
X788728Y424871D01*
X788804Y424825D01*
X788882Y424782D01*
X788962Y424743D01*
X789044Y424707D01*
X789127Y424674D01*
X789212Y424646D01*
X789297Y424621D01*
X789384Y424599D01*
X789472Y424582D01*
X789560Y424569D01*
X789649Y424559D01*
X789738Y424553D01*
X789827Y424551D01*
X791873Y424551D01*
X791987Y424553D01*
X792101Y424559D01*
X792215Y424569D01*
X792329Y424583D01*
X792442Y424601D01*
X792554Y424623D01*
X792665Y424648D01*
X792775Y424678D01*
X792885Y424711D01*
X792993Y424748D01*
X793099Y424789D01*
X793205Y424834D01*
X793308Y424882D01*
X793410Y424934D01*
X793510Y424990D01*
X793608Y425048D01*
X793704Y425111D01*
X793797Y425176D01*
X793889Y425245D01*
X793977Y425317D01*
X794064Y425392D01*
X794147Y425470D01*
X794228Y425551D01*
X794306Y425634D01*
X794381Y425721D01*
X794453Y425809D01*
X794522Y425901D01*
X794587Y425994D01*
X794649Y426090D01*
X794708Y426188D01*
X794764Y426288D01*
X794816Y426390D01*
X794864Y426493D01*
X794909Y426599D01*
X794950Y426705D01*
X794987Y426813D01*
X795020Y426923D01*
X795050Y427033D01*
X795075Y427144D01*
X795097Y427256D01*
X795115Y427369D01*
X795129Y427483D01*
X795139Y427597D01*
X795145Y427711D01*
X795147Y427825D01*
X757047Y389777D02*
X749681Y389777D01*
X757047Y387731D02*
X757047Y391823D01*
X749681Y394818D02*
X749681Y398092D01*
X749681Y394818D02*
X757047Y394818D01*
X757047Y398092D01*
X753773Y397273D02*
X753773Y394818D01*
X757047Y401221D02*
X749681Y401221D01*
X752955Y403676D02*
X757047Y401221D01*
X752955Y403676D02*
X757047Y406131D01*
X749681Y406131D01*
X749681Y410038D02*
X757047Y410038D01*
X757047Y412084D01*
X757045Y412173D01*
X757039Y412262D01*
X757029Y412351D01*
X757016Y412439D01*
X756999Y412527D01*
X756977Y412614D01*
X756952Y412699D01*
X756924Y412784D01*
X756891Y412867D01*
X756855Y412949D01*
X756816Y413029D01*
X756773Y413107D01*
X756727Y413183D01*
X756677Y413258D01*
X756624Y413330D01*
X756568Y413399D01*
X756509Y413466D01*
X756448Y413531D01*
X756383Y413592D01*
X756316Y413651D01*
X756247Y413707D01*
X756175Y413760D01*
X756100Y413810D01*
X756024Y413856D01*
X755946Y413899D01*
X755866Y413938D01*
X755784Y413974D01*
X755701Y414007D01*
X755616Y414035D01*
X755531Y414060D01*
X755444Y414082D01*
X755356Y414099D01*
X755268Y414112D01*
X755179Y414122D01*
X755090Y414128D01*
X755001Y414130D01*
X754912Y414128D01*
X754823Y414122D01*
X754734Y414112D01*
X754646Y414099D01*
X754558Y414082D01*
X754471Y414060D01*
X754386Y414035D01*
X754301Y414007D01*
X754218Y413974D01*
X754136Y413938D01*
X754056Y413899D01*
X753978Y413856D01*
X753902Y413810D01*
X753827Y413760D01*
X753755Y413707D01*
X753686Y413651D01*
X753619Y413592D01*
X753554Y413531D01*
X753493Y413466D01*
X753434Y413399D01*
X753378Y413330D01*
X753325Y413258D01*
X753275Y413183D01*
X753229Y413107D01*
X753186Y413029D01*
X753147Y412949D01*
X753111Y412867D01*
X753078Y412784D01*
X753050Y412699D01*
X753025Y412614D01*
X753003Y412527D01*
X752986Y412439D01*
X752973Y412351D01*
X752963Y412262D01*
X752957Y412173D01*
X752955Y412084D01*
X752955Y410038D01*
X749681Y417287D02*
X757047Y417287D01*
X757047Y419333D01*
X757045Y419422D01*
X757039Y419511D01*
X757029Y419600D01*
X757016Y419688D01*
X756999Y419776D01*
X756977Y419863D01*
X756952Y419948D01*
X756924Y420033D01*
X756891Y420116D01*
X756855Y420198D01*
X756816Y420278D01*
X756773Y420356D01*
X756727Y420432D01*
X756677Y420507D01*
X756624Y420579D01*
X756568Y420648D01*
X756509Y420715D01*
X756448Y420780D01*
X756383Y420841D01*
X756316Y420900D01*
X756247Y420956D01*
X756175Y421009D01*
X756100Y421059D01*
X756024Y421105D01*
X755946Y421148D01*
X755866Y421187D01*
X755784Y421223D01*
X755701Y421256D01*
X755616Y421284D01*
X755531Y421309D01*
X755444Y421331D01*
X755356Y421348D01*
X755268Y421361D01*
X755179Y421371D01*
X755090Y421377D01*
X755001Y421379D01*
X754912Y421377D01*
X754823Y421371D01*
X754734Y421361D01*
X754646Y421348D01*
X754558Y421331D01*
X754471Y421309D01*
X754386Y421284D01*
X754301Y421256D01*
X754218Y421223D01*
X754136Y421187D01*
X754056Y421148D01*
X753978Y421105D01*
X753902Y421059D01*
X753827Y421009D01*
X753755Y420956D01*
X753686Y420900D01*
X753619Y420841D01*
X753554Y420780D01*
X753493Y420715D01*
X753434Y420648D01*
X753378Y420579D01*
X753325Y420507D01*
X753275Y420432D01*
X753229Y420356D01*
X753186Y420278D01*
X753147Y420198D01*
X753111Y420116D01*
X753078Y420033D01*
X753050Y419948D01*
X753025Y419863D01*
X753003Y419776D01*
X752986Y419688D01*
X752973Y419600D01*
X752963Y419511D01*
X752957Y419422D01*
X752955Y419333D01*
X752955Y417287D01*
X752955Y419742D02*
X749681Y421379D01*
X749681Y424551D02*
X749681Y427006D01*
X749683Y427086D01*
X749689Y427166D01*
X749699Y427246D01*
X749712Y427325D01*
X749730Y427404D01*
X749751Y427481D01*
X749777Y427557D01*
X749806Y427632D01*
X749838Y427706D01*
X749874Y427778D01*
X749914Y427848D01*
X749957Y427915D01*
X750003Y427981D01*
X750053Y428044D01*
X750105Y428105D01*
X750160Y428164D01*
X750219Y428219D01*
X750279Y428271D01*
X750343Y428321D01*
X750409Y428367D01*
X750476Y428410D01*
X750546Y428450D01*
X750618Y428486D01*
X750692Y428518D01*
X750766Y428547D01*
X750843Y428573D01*
X750920Y428594D01*
X750999Y428612D01*
X751078Y428625D01*
X751158Y428635D01*
X751238Y428641D01*
X751318Y428643D01*
X752136Y428643D01*
X752214Y428641D01*
X752292Y428636D01*
X752369Y428626D01*
X752446Y428613D01*
X752522Y428597D01*
X752597Y428577D01*
X752671Y428553D01*
X752744Y428526D01*
X752816Y428495D01*
X752886Y428461D01*
X752955Y428424D01*
X753021Y428383D01*
X753086Y428339D01*
X753148Y428293D01*
X753208Y428243D01*
X753266Y428191D01*
X753321Y428136D01*
X753373Y428078D01*
X753423Y428018D01*
X753469Y427956D01*
X753513Y427891D01*
X753554Y427825D01*
X753591Y427756D01*
X753625Y427686D01*
X753656Y427614D01*
X753683Y427541D01*
X753707Y427467D01*
X753727Y427392D01*
X753743Y427316D01*
X753756Y427239D01*
X753766Y427162D01*
X753771Y427084D01*
X753773Y427006D01*
X753773Y424551D01*
X757047Y424551D01*
X757047Y428643D01*
X712597Y389777D02*
X705231Y389777D01*
X712597Y387731D02*
X712597Y391823D01*
X705231Y394818D02*
X705231Y398092D01*
X705231Y394818D02*
X712597Y394818D01*
X712597Y398092D01*
X709323Y397273D02*
X709323Y394818D01*
X712597Y401221D02*
X705231Y401221D01*
X708505Y403676D02*
X712597Y401221D01*
X708505Y403676D02*
X712597Y406131D01*
X705231Y406131D01*
X705231Y410038D02*
X712597Y410038D01*
X712597Y412084D01*
X712595Y412173D01*
X712589Y412262D01*
X712579Y412351D01*
X712566Y412439D01*
X712549Y412527D01*
X712527Y412614D01*
X712502Y412699D01*
X712474Y412784D01*
X712441Y412867D01*
X712405Y412949D01*
X712366Y413029D01*
X712323Y413107D01*
X712277Y413183D01*
X712227Y413258D01*
X712174Y413330D01*
X712118Y413399D01*
X712059Y413466D01*
X711998Y413531D01*
X711933Y413592D01*
X711866Y413651D01*
X711797Y413707D01*
X711725Y413760D01*
X711650Y413810D01*
X711574Y413856D01*
X711496Y413899D01*
X711416Y413938D01*
X711334Y413974D01*
X711251Y414007D01*
X711166Y414035D01*
X711081Y414060D01*
X710994Y414082D01*
X710906Y414099D01*
X710818Y414112D01*
X710729Y414122D01*
X710640Y414128D01*
X710551Y414130D01*
X710462Y414128D01*
X710373Y414122D01*
X710284Y414112D01*
X710196Y414099D01*
X710108Y414082D01*
X710021Y414060D01*
X709936Y414035D01*
X709851Y414007D01*
X709768Y413974D01*
X709686Y413938D01*
X709606Y413899D01*
X709528Y413856D01*
X709452Y413810D01*
X709377Y413760D01*
X709305Y413707D01*
X709236Y413651D01*
X709169Y413592D01*
X709104Y413531D01*
X709043Y413466D01*
X708984Y413399D01*
X708928Y413330D01*
X708875Y413258D01*
X708825Y413183D01*
X708779Y413107D01*
X708736Y413029D01*
X708697Y412949D01*
X708661Y412867D01*
X708628Y412784D01*
X708600Y412699D01*
X708575Y412614D01*
X708553Y412527D01*
X708536Y412439D01*
X708523Y412351D01*
X708513Y412262D01*
X708507Y412173D01*
X708505Y412084D01*
X708505Y410038D01*
X705231Y417287D02*
X712597Y417287D01*
X712597Y419333D01*
X712595Y419422D01*
X712589Y419511D01*
X712579Y419600D01*
X712566Y419688D01*
X712549Y419776D01*
X712527Y419863D01*
X712502Y419948D01*
X712474Y420033D01*
X712441Y420116D01*
X712405Y420198D01*
X712366Y420278D01*
X712323Y420356D01*
X712277Y420432D01*
X712227Y420507D01*
X712174Y420579D01*
X712118Y420648D01*
X712059Y420715D01*
X711998Y420780D01*
X711933Y420841D01*
X711866Y420900D01*
X711797Y420956D01*
X711725Y421009D01*
X711650Y421059D01*
X711574Y421105D01*
X711496Y421148D01*
X711416Y421187D01*
X711334Y421223D01*
X711251Y421256D01*
X711166Y421284D01*
X711081Y421309D01*
X710994Y421331D01*
X710906Y421348D01*
X710818Y421361D01*
X710729Y421371D01*
X710640Y421377D01*
X710551Y421379D01*
X710462Y421377D01*
X710373Y421371D01*
X710284Y421361D01*
X710196Y421348D01*
X710108Y421331D01*
X710021Y421309D01*
X709936Y421284D01*
X709851Y421256D01*
X709768Y421223D01*
X709686Y421187D01*
X709606Y421148D01*
X709528Y421105D01*
X709452Y421059D01*
X709377Y421009D01*
X709305Y420956D01*
X709236Y420900D01*
X709169Y420841D01*
X709104Y420780D01*
X709043Y420715D01*
X708984Y420648D01*
X708928Y420579D01*
X708875Y420507D01*
X708825Y420432D01*
X708779Y420356D01*
X708736Y420278D01*
X708697Y420198D01*
X708661Y420116D01*
X708628Y420033D01*
X708600Y419948D01*
X708575Y419863D01*
X708553Y419776D01*
X708536Y419688D01*
X708523Y419600D01*
X708513Y419511D01*
X708507Y419422D01*
X708505Y419333D01*
X708505Y417287D01*
X708505Y419742D02*
X705231Y421379D01*
X706868Y424551D02*
X712597Y426188D01*
X706868Y424551D02*
X706868Y428643D01*
X708505Y427415D02*
X705231Y427415D01*
X668147Y389777D02*
X660781Y389777D01*
X668147Y387731D02*
X668147Y391823D01*
X660781Y394818D02*
X660781Y398092D01*
X660781Y394818D02*
X668147Y394818D01*
X668147Y398092D01*
X664873Y397273D02*
X664873Y394818D01*
X668147Y401221D02*
X660781Y401221D01*
X664055Y403676D02*
X668147Y401221D01*
X664055Y403676D02*
X668147Y406131D01*
X660781Y406131D01*
X660781Y410038D02*
X668147Y410038D01*
X668147Y412084D01*
X668145Y412173D01*
X668139Y412262D01*
X668129Y412351D01*
X668116Y412439D01*
X668099Y412527D01*
X668077Y412614D01*
X668052Y412699D01*
X668024Y412784D01*
X667991Y412867D01*
X667955Y412949D01*
X667916Y413029D01*
X667873Y413107D01*
X667827Y413183D01*
X667777Y413258D01*
X667724Y413330D01*
X667668Y413399D01*
X667609Y413466D01*
X667548Y413531D01*
X667483Y413592D01*
X667416Y413651D01*
X667347Y413707D01*
X667275Y413760D01*
X667200Y413810D01*
X667124Y413856D01*
X667046Y413899D01*
X666966Y413938D01*
X666884Y413974D01*
X666801Y414007D01*
X666716Y414035D01*
X666631Y414060D01*
X666544Y414082D01*
X666456Y414099D01*
X666368Y414112D01*
X666279Y414122D01*
X666190Y414128D01*
X666101Y414130D01*
X666012Y414128D01*
X665923Y414122D01*
X665834Y414112D01*
X665746Y414099D01*
X665658Y414082D01*
X665571Y414060D01*
X665486Y414035D01*
X665401Y414007D01*
X665318Y413974D01*
X665236Y413938D01*
X665156Y413899D01*
X665078Y413856D01*
X665002Y413810D01*
X664927Y413760D01*
X664855Y413707D01*
X664786Y413651D01*
X664719Y413592D01*
X664654Y413531D01*
X664593Y413466D01*
X664534Y413399D01*
X664478Y413330D01*
X664425Y413258D01*
X664375Y413183D01*
X664329Y413107D01*
X664286Y413029D01*
X664247Y412949D01*
X664211Y412867D01*
X664178Y412784D01*
X664150Y412699D01*
X664125Y412614D01*
X664103Y412527D01*
X664086Y412439D01*
X664073Y412351D01*
X664063Y412262D01*
X664057Y412173D01*
X664055Y412084D01*
X664055Y410038D01*
X660781Y417287D02*
X668147Y417287D01*
X668147Y419333D01*
X668145Y419422D01*
X668139Y419511D01*
X668129Y419600D01*
X668116Y419688D01*
X668099Y419776D01*
X668077Y419863D01*
X668052Y419948D01*
X668024Y420033D01*
X667991Y420116D01*
X667955Y420198D01*
X667916Y420278D01*
X667873Y420356D01*
X667827Y420432D01*
X667777Y420507D01*
X667724Y420579D01*
X667668Y420648D01*
X667609Y420715D01*
X667548Y420780D01*
X667483Y420841D01*
X667416Y420900D01*
X667347Y420956D01*
X667275Y421009D01*
X667200Y421059D01*
X667124Y421105D01*
X667046Y421148D01*
X666966Y421187D01*
X666884Y421223D01*
X666801Y421256D01*
X666716Y421284D01*
X666631Y421309D01*
X666544Y421331D01*
X666456Y421348D01*
X666368Y421361D01*
X666279Y421371D01*
X666190Y421377D01*
X666101Y421379D01*
X666012Y421377D01*
X665923Y421371D01*
X665834Y421361D01*
X665746Y421348D01*
X665658Y421331D01*
X665571Y421309D01*
X665486Y421284D01*
X665401Y421256D01*
X665318Y421223D01*
X665236Y421187D01*
X665156Y421148D01*
X665078Y421105D01*
X665002Y421059D01*
X664927Y421009D01*
X664855Y420956D01*
X664786Y420900D01*
X664719Y420841D01*
X664654Y420780D01*
X664593Y420715D01*
X664534Y420648D01*
X664478Y420579D01*
X664425Y420507D01*
X664375Y420432D01*
X664329Y420356D01*
X664286Y420278D01*
X664247Y420198D01*
X664211Y420116D01*
X664178Y420033D01*
X664150Y419948D01*
X664125Y419863D01*
X664103Y419776D01*
X664086Y419688D01*
X664073Y419600D01*
X664063Y419511D01*
X664057Y419422D01*
X664055Y419333D01*
X664055Y417287D01*
X664055Y419742D02*
X660781Y421379D01*
X660781Y424551D02*
X660781Y426597D01*
X660783Y426686D01*
X660789Y426775D01*
X660799Y426864D01*
X660812Y426952D01*
X660829Y427040D01*
X660851Y427127D01*
X660876Y427212D01*
X660904Y427297D01*
X660937Y427380D01*
X660973Y427462D01*
X661012Y427542D01*
X661055Y427620D01*
X661101Y427696D01*
X661151Y427771D01*
X661204Y427843D01*
X661260Y427912D01*
X661319Y427979D01*
X661380Y428044D01*
X661445Y428105D01*
X661512Y428164D01*
X661581Y428220D01*
X661653Y428273D01*
X661728Y428323D01*
X661804Y428369D01*
X661882Y428412D01*
X661962Y428451D01*
X662044Y428487D01*
X662127Y428520D01*
X662212Y428548D01*
X662297Y428573D01*
X662384Y428595D01*
X662472Y428612D01*
X662560Y428625D01*
X662649Y428635D01*
X662738Y428641D01*
X662827Y428643D01*
X662916Y428641D01*
X663005Y428635D01*
X663094Y428625D01*
X663182Y428612D01*
X663270Y428595D01*
X663357Y428573D01*
X663442Y428548D01*
X663527Y428520D01*
X663610Y428487D01*
X663692Y428451D01*
X663772Y428412D01*
X663850Y428369D01*
X663926Y428323D01*
X664001Y428273D01*
X664073Y428220D01*
X664142Y428164D01*
X664209Y428105D01*
X664274Y428044D01*
X664335Y427979D01*
X664394Y427912D01*
X664450Y427843D01*
X664503Y427771D01*
X664553Y427696D01*
X664599Y427620D01*
X664642Y427542D01*
X664681Y427462D01*
X664717Y427380D01*
X664750Y427297D01*
X664778Y427212D01*
X664803Y427127D01*
X664825Y427040D01*
X664842Y426952D01*
X664855Y426864D01*
X664865Y426775D01*
X664871Y426686D01*
X664873Y426597D01*
X668147Y427006D02*
X668147Y424551D01*
X668147Y427006D02*
X668145Y427085D01*
X668139Y427164D01*
X668130Y427243D01*
X668117Y427321D01*
X668099Y427398D01*
X668079Y427474D01*
X668054Y427549D01*
X668026Y427623D01*
X667995Y427696D01*
X667959Y427767D01*
X667921Y427836D01*
X667879Y427903D01*
X667834Y427968D01*
X667786Y428031D01*
X667735Y428092D01*
X667681Y428149D01*
X667625Y428205D01*
X667566Y428257D01*
X667504Y428307D01*
X667440Y428353D01*
X667374Y428397D01*
X667306Y428437D01*
X667236Y428473D01*
X667164Y428507D01*
X667090Y428537D01*
X667016Y428563D01*
X666940Y428586D01*
X666863Y428604D01*
X666786Y428620D01*
X666707Y428631D01*
X666629Y428639D01*
X666550Y428643D01*
X666470Y428643D01*
X666391Y428639D01*
X666313Y428631D01*
X666234Y428620D01*
X666157Y428604D01*
X666080Y428586D01*
X666004Y428563D01*
X665930Y428537D01*
X665856Y428507D01*
X665784Y428473D01*
X665714Y428437D01*
X665646Y428397D01*
X665580Y428353D01*
X665516Y428307D01*
X665454Y428257D01*
X665395Y428205D01*
X665339Y428149D01*
X665285Y428092D01*
X665234Y428031D01*
X665186Y427968D01*
X665141Y427903D01*
X665099Y427836D01*
X665061Y427767D01*
X665025Y427696D01*
X664994Y427623D01*
X664966Y427549D01*
X664941Y427474D01*
X664921Y427398D01*
X664903Y427321D01*
X664890Y427243D01*
X664881Y427164D01*
X664875Y427085D01*
X664873Y427006D01*
X664873Y425369D01*
X623697Y389777D02*
X616331Y389777D01*
X623697Y387731D02*
X623697Y391823D01*
X616331Y394818D02*
X616331Y398092D01*
X616331Y394818D02*
X623697Y394818D01*
X623697Y398092D01*
X620423Y397273D02*
X620423Y394818D01*
X623697Y401221D02*
X616331Y401221D01*
X619605Y403676D02*
X623697Y401221D01*
X619605Y403676D02*
X623697Y406131D01*
X616331Y406131D01*
X616331Y410038D02*
X623697Y410038D01*
X623697Y412084D01*
X623695Y412173D01*
X623689Y412262D01*
X623679Y412351D01*
X623666Y412439D01*
X623649Y412527D01*
X623627Y412614D01*
X623602Y412699D01*
X623574Y412784D01*
X623541Y412867D01*
X623505Y412949D01*
X623466Y413029D01*
X623423Y413107D01*
X623377Y413183D01*
X623327Y413258D01*
X623274Y413330D01*
X623218Y413399D01*
X623159Y413466D01*
X623098Y413531D01*
X623033Y413592D01*
X622966Y413651D01*
X622897Y413707D01*
X622825Y413760D01*
X622750Y413810D01*
X622674Y413856D01*
X622596Y413899D01*
X622516Y413938D01*
X622434Y413974D01*
X622351Y414007D01*
X622266Y414035D01*
X622181Y414060D01*
X622094Y414082D01*
X622006Y414099D01*
X621918Y414112D01*
X621829Y414122D01*
X621740Y414128D01*
X621651Y414130D01*
X621562Y414128D01*
X621473Y414122D01*
X621384Y414112D01*
X621296Y414099D01*
X621208Y414082D01*
X621121Y414060D01*
X621036Y414035D01*
X620951Y414007D01*
X620868Y413974D01*
X620786Y413938D01*
X620706Y413899D01*
X620628Y413856D01*
X620552Y413810D01*
X620477Y413760D01*
X620405Y413707D01*
X620336Y413651D01*
X620269Y413592D01*
X620204Y413531D01*
X620143Y413466D01*
X620084Y413399D01*
X620028Y413330D01*
X619975Y413258D01*
X619925Y413183D01*
X619879Y413107D01*
X619836Y413029D01*
X619797Y412949D01*
X619761Y412867D01*
X619728Y412784D01*
X619700Y412699D01*
X619675Y412614D01*
X619653Y412527D01*
X619636Y412439D01*
X619623Y412351D01*
X619613Y412262D01*
X619607Y412173D01*
X619605Y412084D01*
X619605Y410038D01*
X616331Y417287D02*
X623697Y417287D01*
X623697Y419333D01*
X623695Y419422D01*
X623689Y419511D01*
X623679Y419600D01*
X623666Y419688D01*
X623649Y419776D01*
X623627Y419863D01*
X623602Y419948D01*
X623574Y420033D01*
X623541Y420116D01*
X623505Y420198D01*
X623466Y420278D01*
X623423Y420356D01*
X623377Y420432D01*
X623327Y420507D01*
X623274Y420579D01*
X623218Y420648D01*
X623159Y420715D01*
X623098Y420780D01*
X623033Y420841D01*
X622966Y420900D01*
X622897Y420956D01*
X622825Y421009D01*
X622750Y421059D01*
X622674Y421105D01*
X622596Y421148D01*
X622516Y421187D01*
X622434Y421223D01*
X622351Y421256D01*
X622266Y421284D01*
X622181Y421309D01*
X622094Y421331D01*
X622006Y421348D01*
X621918Y421361D01*
X621829Y421371D01*
X621740Y421377D01*
X621651Y421379D01*
X621562Y421377D01*
X621473Y421371D01*
X621384Y421361D01*
X621296Y421348D01*
X621208Y421331D01*
X621121Y421309D01*
X621036Y421284D01*
X620951Y421256D01*
X620868Y421223D01*
X620786Y421187D01*
X620706Y421148D01*
X620628Y421105D01*
X620552Y421059D01*
X620477Y421009D01*
X620405Y420956D01*
X620336Y420900D01*
X620269Y420841D01*
X620204Y420780D01*
X620143Y420715D01*
X620084Y420648D01*
X620028Y420579D01*
X619975Y420507D01*
X619925Y420432D01*
X619879Y420356D01*
X619836Y420278D01*
X619797Y420198D01*
X619761Y420116D01*
X619728Y420033D01*
X619700Y419948D01*
X619675Y419863D01*
X619653Y419776D01*
X619636Y419688D01*
X619623Y419600D01*
X619613Y419511D01*
X619607Y419422D01*
X619605Y419333D01*
X619605Y417287D01*
X619605Y419742D02*
X616331Y421379D01*
X621856Y428644D02*
X621941Y428642D01*
X622026Y428636D01*
X622110Y428626D01*
X622194Y428613D01*
X622278Y428595D01*
X622360Y428574D01*
X622441Y428549D01*
X622521Y428520D01*
X622600Y428487D01*
X622677Y428451D01*
X622752Y428411D01*
X622826Y428368D01*
X622897Y428322D01*
X622966Y428272D01*
X623033Y428219D01*
X623097Y428163D01*
X623158Y428104D01*
X623217Y428043D01*
X623273Y427979D01*
X623326Y427912D01*
X623376Y427843D01*
X623422Y427772D01*
X623465Y427698D01*
X623505Y427623D01*
X623541Y427546D01*
X623574Y427467D01*
X623603Y427387D01*
X623628Y427306D01*
X623649Y427224D01*
X623667Y427140D01*
X623680Y427056D01*
X623690Y426972D01*
X623696Y426887D01*
X623698Y426802D01*
X623697Y426802D02*
X623695Y426706D01*
X623689Y426610D01*
X623679Y426515D01*
X623666Y426420D01*
X623648Y426325D01*
X623627Y426232D01*
X623602Y426139D01*
X623573Y426048D01*
X623541Y425957D01*
X623505Y425868D01*
X623465Y425781D01*
X623422Y425695D01*
X623376Y425611D01*
X623326Y425529D01*
X623272Y425449D01*
X623216Y425372D01*
X623156Y425297D01*
X623094Y425224D01*
X623028Y425154D01*
X622960Y425086D01*
X622889Y425021D01*
X622816Y424960D01*
X622740Y424901D01*
X622661Y424845D01*
X622581Y424793D01*
X622498Y424744D01*
X622414Y424698D01*
X622328Y424656D01*
X622240Y424618D01*
X622151Y424583D01*
X622060Y424551D01*
X620424Y428029D02*
X620483Y428089D01*
X620545Y428146D01*
X620609Y428201D01*
X620676Y428252D01*
X620745Y428301D01*
X620815Y428347D01*
X620888Y428390D01*
X620962Y428430D01*
X621038Y428466D01*
X621116Y428499D01*
X621195Y428529D01*
X621275Y428556D01*
X621356Y428579D01*
X621438Y428598D01*
X621520Y428614D01*
X621604Y428627D01*
X621688Y428636D01*
X621772Y428641D01*
X621856Y428643D01*
X620423Y428029D02*
X616331Y424551D01*
X616331Y428643D01*
X585597Y389777D02*
X578231Y389777D01*
X585597Y387731D02*
X585597Y391823D01*
X578231Y394818D02*
X578231Y398092D01*
X578231Y394818D02*
X585597Y394818D01*
X585597Y398092D01*
X582323Y397273D02*
X582323Y394818D01*
X585597Y401221D02*
X578231Y401221D01*
X581505Y403676D02*
X585597Y401221D01*
X581505Y403676D02*
X585597Y406131D01*
X578231Y406131D01*
X578231Y410038D02*
X585597Y410038D01*
X585597Y412084D01*
X585595Y412173D01*
X585589Y412262D01*
X585579Y412351D01*
X585566Y412439D01*
X585549Y412527D01*
X585527Y412614D01*
X585502Y412699D01*
X585474Y412784D01*
X585441Y412867D01*
X585405Y412949D01*
X585366Y413029D01*
X585323Y413107D01*
X585277Y413183D01*
X585227Y413258D01*
X585174Y413330D01*
X585118Y413399D01*
X585059Y413466D01*
X584998Y413531D01*
X584933Y413592D01*
X584866Y413651D01*
X584797Y413707D01*
X584725Y413760D01*
X584650Y413810D01*
X584574Y413856D01*
X584496Y413899D01*
X584416Y413938D01*
X584334Y413974D01*
X584251Y414007D01*
X584166Y414035D01*
X584081Y414060D01*
X583994Y414082D01*
X583906Y414099D01*
X583818Y414112D01*
X583729Y414122D01*
X583640Y414128D01*
X583551Y414130D01*
X583462Y414128D01*
X583373Y414122D01*
X583284Y414112D01*
X583196Y414099D01*
X583108Y414082D01*
X583021Y414060D01*
X582936Y414035D01*
X582851Y414007D01*
X582768Y413974D01*
X582686Y413938D01*
X582606Y413899D01*
X582528Y413856D01*
X582452Y413810D01*
X582377Y413760D01*
X582305Y413707D01*
X582236Y413651D01*
X582169Y413592D01*
X582104Y413531D01*
X582043Y413466D01*
X581984Y413399D01*
X581928Y413330D01*
X581875Y413258D01*
X581825Y413183D01*
X581779Y413107D01*
X581736Y413029D01*
X581697Y412949D01*
X581661Y412867D01*
X581628Y412784D01*
X581600Y412699D01*
X581575Y412614D01*
X581553Y412527D01*
X581536Y412439D01*
X581523Y412351D01*
X581513Y412262D01*
X581507Y412173D01*
X581505Y412084D01*
X581505Y410038D01*
X578231Y417287D02*
X585597Y417287D01*
X585597Y419333D01*
X585595Y419422D01*
X585589Y419511D01*
X585579Y419600D01*
X585566Y419688D01*
X585549Y419776D01*
X585527Y419863D01*
X585502Y419948D01*
X585474Y420033D01*
X585441Y420116D01*
X585405Y420198D01*
X585366Y420278D01*
X585323Y420356D01*
X585277Y420432D01*
X585227Y420507D01*
X585174Y420579D01*
X585118Y420648D01*
X585059Y420715D01*
X584998Y420780D01*
X584933Y420841D01*
X584866Y420900D01*
X584797Y420956D01*
X584725Y421009D01*
X584650Y421059D01*
X584574Y421105D01*
X584496Y421148D01*
X584416Y421187D01*
X584334Y421223D01*
X584251Y421256D01*
X584166Y421284D01*
X584081Y421309D01*
X583994Y421331D01*
X583906Y421348D01*
X583818Y421361D01*
X583729Y421371D01*
X583640Y421377D01*
X583551Y421379D01*
X583462Y421377D01*
X583373Y421371D01*
X583284Y421361D01*
X583196Y421348D01*
X583108Y421331D01*
X583021Y421309D01*
X582936Y421284D01*
X582851Y421256D01*
X582768Y421223D01*
X582686Y421187D01*
X582606Y421148D01*
X582528Y421105D01*
X582452Y421059D01*
X582377Y421009D01*
X582305Y420956D01*
X582236Y420900D01*
X582169Y420841D01*
X582104Y420780D01*
X582043Y420715D01*
X581984Y420648D01*
X581928Y420579D01*
X581875Y420507D01*
X581825Y420432D01*
X581779Y420356D01*
X581736Y420278D01*
X581697Y420198D01*
X581661Y420116D01*
X581628Y420033D01*
X581600Y419948D01*
X581575Y419863D01*
X581553Y419776D01*
X581536Y419688D01*
X581523Y419600D01*
X581513Y419511D01*
X581507Y419422D01*
X581505Y419333D01*
X581505Y417287D01*
X581505Y419742D02*
X578231Y421379D01*
X583960Y424551D02*
X585597Y426597D01*
X578231Y426597D01*
X578231Y424551D02*
X578231Y428643D01*
X1467231Y111605D02*
X1467231Y109968D01*
X1467233Y109890D01*
X1467238Y109812D01*
X1467248Y109735D01*
X1467261Y109658D01*
X1467277Y109582D01*
X1467297Y109507D01*
X1467321Y109433D01*
X1467348Y109360D01*
X1467379Y109288D01*
X1467413Y109218D01*
X1467450Y109150D01*
X1467491Y109083D01*
X1467535Y109018D01*
X1467581Y108956D01*
X1467631Y108896D01*
X1467683Y108838D01*
X1467738Y108783D01*
X1467796Y108731D01*
X1467856Y108681D01*
X1467918Y108635D01*
X1467983Y108591D01*
X1468050Y108550D01*
X1468118Y108513D01*
X1468188Y108479D01*
X1468260Y108448D01*
X1468333Y108421D01*
X1468407Y108397D01*
X1468482Y108377D01*
X1468558Y108361D01*
X1468635Y108348D01*
X1468712Y108338D01*
X1468790Y108333D01*
X1468868Y108331D01*
X1472960Y108331D01*
X1473038Y108333D01*
X1473116Y108338D01*
X1473193Y108348D01*
X1473270Y108361D01*
X1473346Y108377D01*
X1473421Y108397D01*
X1473495Y108421D01*
X1473568Y108448D01*
X1473640Y108479D01*
X1473710Y108513D01*
X1473779Y108550D01*
X1473845Y108591D01*
X1473910Y108635D01*
X1473972Y108681D01*
X1474032Y108731D01*
X1474090Y108783D01*
X1474145Y108838D01*
X1474197Y108896D01*
X1474247Y108956D01*
X1474293Y109018D01*
X1474337Y109083D01*
X1474378Y109150D01*
X1474415Y109218D01*
X1474449Y109288D01*
X1474480Y109360D01*
X1474507Y109433D01*
X1474531Y109507D01*
X1474551Y109582D01*
X1474567Y109658D01*
X1474580Y109735D01*
X1474590Y109812D01*
X1474595Y109890D01*
X1474597Y109968D01*
X1474597Y111605D01*
X1474597Y116008D02*
X1467231Y116008D01*
X1474597Y113962D02*
X1474597Y118055D01*
X1468868Y124638D02*
X1468790Y124636D01*
X1468712Y124631D01*
X1468635Y124621D01*
X1468558Y124608D01*
X1468482Y124592D01*
X1468407Y124572D01*
X1468333Y124548D01*
X1468260Y124521D01*
X1468188Y124490D01*
X1468118Y124456D01*
X1468050Y124419D01*
X1467983Y124378D01*
X1467918Y124334D01*
X1467856Y124288D01*
X1467796Y124238D01*
X1467738Y124186D01*
X1467683Y124131D01*
X1467631Y124073D01*
X1467581Y124013D01*
X1467535Y123951D01*
X1467491Y123886D01*
X1467450Y123820D01*
X1467413Y123751D01*
X1467379Y123681D01*
X1467348Y123609D01*
X1467321Y123536D01*
X1467297Y123462D01*
X1467277Y123387D01*
X1467261Y123311D01*
X1467248Y123234D01*
X1467238Y123157D01*
X1467233Y123079D01*
X1467231Y123001D01*
X1467233Y122887D01*
X1467238Y122774D01*
X1467248Y122660D01*
X1467261Y122547D01*
X1467278Y122435D01*
X1467298Y122323D01*
X1467322Y122212D01*
X1467350Y122101D01*
X1467381Y121992D01*
X1467416Y121884D01*
X1467455Y121777D01*
X1467497Y121671D01*
X1467542Y121567D01*
X1467591Y121464D01*
X1467644Y121363D01*
X1467699Y121264D01*
X1467758Y121166D01*
X1467820Y121071D01*
X1467885Y120978D01*
X1467953Y120886D01*
X1468024Y120798D01*
X1468098Y120711D01*
X1468175Y120627D01*
X1468254Y120546D01*
X1472960Y120751D02*
X1473038Y120753D01*
X1473116Y120758D01*
X1473193Y120768D01*
X1473270Y120781D01*
X1473346Y120797D01*
X1473421Y120817D01*
X1473495Y120841D01*
X1473568Y120868D01*
X1473640Y120899D01*
X1473710Y120933D01*
X1473779Y120970D01*
X1473845Y121011D01*
X1473910Y121055D01*
X1473972Y121101D01*
X1474032Y121151D01*
X1474090Y121203D01*
X1474145Y121258D01*
X1474197Y121316D01*
X1474247Y121376D01*
X1474293Y121438D01*
X1474337Y121503D01*
X1474378Y121570D01*
X1474415Y121638D01*
X1474449Y121708D01*
X1474480Y121780D01*
X1474507Y121853D01*
X1474531Y121927D01*
X1474551Y122002D01*
X1474567Y122078D01*
X1474580Y122155D01*
X1474590Y122232D01*
X1474595Y122310D01*
X1474597Y122388D01*
X1474595Y122498D01*
X1474589Y122607D01*
X1474579Y122717D01*
X1474566Y122825D01*
X1474548Y122934D01*
X1474527Y123041D01*
X1474501Y123148D01*
X1474472Y123254D01*
X1474440Y123359D01*
X1474403Y123462D01*
X1474363Y123564D01*
X1474319Y123665D01*
X1474271Y123764D01*
X1474221Y123861D01*
X1474166Y123956D01*
X1474108Y124049D01*
X1474047Y124140D01*
X1473983Y124229D01*
X1471527Y121569D02*
X1471569Y121502D01*
X1471613Y121437D01*
X1471661Y121375D01*
X1471711Y121315D01*
X1471764Y121257D01*
X1471820Y121202D01*
X1471879Y121150D01*
X1471939Y121100D01*
X1472003Y121053D01*
X1472068Y121010D01*
X1472135Y120969D01*
X1472204Y120932D01*
X1472275Y120898D01*
X1472347Y120867D01*
X1472421Y120840D01*
X1472495Y120816D01*
X1472571Y120796D01*
X1472648Y120780D01*
X1472725Y120767D01*
X1472803Y120757D01*
X1472882Y120752D01*
X1472960Y120750D01*
X1470300Y123820D02*
X1470258Y123886D01*
X1470214Y123951D01*
X1470167Y124013D01*
X1470116Y124073D01*
X1470063Y124131D01*
X1470007Y124186D01*
X1469949Y124239D01*
X1469888Y124288D01*
X1469825Y124335D01*
X1469760Y124378D01*
X1469693Y124419D01*
X1469624Y124456D01*
X1469553Y124490D01*
X1469481Y124521D01*
X1469407Y124548D01*
X1469332Y124572D01*
X1469257Y124592D01*
X1469180Y124608D01*
X1469103Y124621D01*
X1469025Y124631D01*
X1468946Y124636D01*
X1468868Y124638D01*
X1470300Y123820D02*
X1471528Y121569D01*
X1474597Y127912D02*
X1467231Y127912D01*
X1474597Y127912D02*
X1474597Y129959D01*
X1474595Y130048D01*
X1474589Y130137D01*
X1474579Y130226D01*
X1474566Y130314D01*
X1474549Y130402D01*
X1474527Y130489D01*
X1474502Y130574D01*
X1474474Y130659D01*
X1474441Y130742D01*
X1474405Y130824D01*
X1474366Y130904D01*
X1474323Y130982D01*
X1474277Y131058D01*
X1474227Y131133D01*
X1474174Y131205D01*
X1474118Y131274D01*
X1474059Y131341D01*
X1473998Y131406D01*
X1473933Y131467D01*
X1473866Y131526D01*
X1473797Y131582D01*
X1473725Y131635D01*
X1473650Y131685D01*
X1473574Y131731D01*
X1473496Y131774D01*
X1473416Y131813D01*
X1473334Y131849D01*
X1473251Y131882D01*
X1473166Y131910D01*
X1473081Y131935D01*
X1472994Y131957D01*
X1472906Y131974D01*
X1472818Y131987D01*
X1472729Y131997D01*
X1472640Y132003D01*
X1472551Y132005D01*
X1472462Y132003D01*
X1472373Y131997D01*
X1472284Y131987D01*
X1472196Y131974D01*
X1472108Y131957D01*
X1472021Y131935D01*
X1471936Y131910D01*
X1471851Y131882D01*
X1471768Y131849D01*
X1471686Y131813D01*
X1471606Y131774D01*
X1471528Y131731D01*
X1471452Y131685D01*
X1471377Y131635D01*
X1471305Y131582D01*
X1471236Y131526D01*
X1471169Y131467D01*
X1471104Y131406D01*
X1471043Y131341D01*
X1470984Y131274D01*
X1470928Y131205D01*
X1470875Y131133D01*
X1470825Y131058D01*
X1470779Y130982D01*
X1470736Y130904D01*
X1470697Y130824D01*
X1470661Y130742D01*
X1470628Y130659D01*
X1470600Y130574D01*
X1470575Y130489D01*
X1470553Y130402D01*
X1470536Y130314D01*
X1470523Y130226D01*
X1470513Y130137D01*
X1470507Y130048D01*
X1470505Y129959D01*
X1470505Y127912D01*
X1470505Y130368D02*
X1467231Y132005D01*
X1467231Y135436D02*
X1467231Y138710D01*
X1467231Y135436D02*
X1474597Y135436D01*
X1474597Y138710D01*
X1471323Y137891D02*
X1471323Y135436D01*
X1474597Y141776D02*
X1467231Y141776D01*
X1474597Y141776D02*
X1474597Y145050D01*
X1471323Y145050D02*
X1471323Y141776D01*
X1474598Y150107D02*
X1474596Y150192D01*
X1474590Y150277D01*
X1474580Y150361D01*
X1474567Y150445D01*
X1474549Y150529D01*
X1474528Y150611D01*
X1474503Y150692D01*
X1474474Y150772D01*
X1474441Y150851D01*
X1474405Y150928D01*
X1474365Y151003D01*
X1474322Y151077D01*
X1474276Y151148D01*
X1474226Y151217D01*
X1474173Y151284D01*
X1474117Y151348D01*
X1474058Y151409D01*
X1473997Y151468D01*
X1473933Y151524D01*
X1473866Y151577D01*
X1473797Y151627D01*
X1473726Y151673D01*
X1473652Y151716D01*
X1473577Y151756D01*
X1473500Y151792D01*
X1473421Y151825D01*
X1473341Y151854D01*
X1473260Y151879D01*
X1473178Y151900D01*
X1473094Y151918D01*
X1473010Y151931D01*
X1472926Y151941D01*
X1472841Y151947D01*
X1472756Y151949D01*
X1474597Y150107D02*
X1474595Y150011D01*
X1474589Y149915D01*
X1474579Y149820D01*
X1474566Y149725D01*
X1474548Y149630D01*
X1474527Y149537D01*
X1474502Y149444D01*
X1474473Y149353D01*
X1474441Y149262D01*
X1474405Y149173D01*
X1474365Y149086D01*
X1474322Y149000D01*
X1474276Y148916D01*
X1474226Y148834D01*
X1474172Y148754D01*
X1474116Y148677D01*
X1474056Y148602D01*
X1473994Y148529D01*
X1473928Y148459D01*
X1473860Y148391D01*
X1473789Y148326D01*
X1473716Y148265D01*
X1473640Y148206D01*
X1473561Y148150D01*
X1473481Y148098D01*
X1473398Y148049D01*
X1473314Y148003D01*
X1473228Y147961D01*
X1473140Y147923D01*
X1473051Y147888D01*
X1472960Y147856D01*
X1471324Y151334D02*
X1471383Y151394D01*
X1471445Y151451D01*
X1471509Y151506D01*
X1471576Y151557D01*
X1471645Y151606D01*
X1471715Y151652D01*
X1471788Y151695D01*
X1471862Y151735D01*
X1471938Y151771D01*
X1472016Y151804D01*
X1472095Y151834D01*
X1472175Y151861D01*
X1472256Y151884D01*
X1472338Y151903D01*
X1472420Y151919D01*
X1472504Y151932D01*
X1472588Y151941D01*
X1472672Y151946D01*
X1472756Y151948D01*
X1471323Y151334D02*
X1467231Y147856D01*
X1467231Y151948D01*
X1484503Y74088D02*
X1491869Y74088D01*
X1491869Y72042D02*
X1491869Y76134D01*
X1484503Y79129D02*
X1484503Y82403D01*
X1484503Y79129D02*
X1491869Y79129D01*
X1491869Y82403D01*
X1488595Y81584D02*
X1488595Y79129D01*
X1491869Y85531D02*
X1484503Y85531D01*
X1487777Y87987D02*
X1491869Y85531D01*
X1487777Y87987D02*
X1491869Y90442D01*
X1484503Y90442D01*
X1484503Y94349D02*
X1491869Y94349D01*
X1491869Y96395D01*
X1491867Y96484D01*
X1491861Y96573D01*
X1491851Y96662D01*
X1491838Y96750D01*
X1491821Y96838D01*
X1491799Y96925D01*
X1491774Y97010D01*
X1491746Y97095D01*
X1491713Y97178D01*
X1491677Y97260D01*
X1491638Y97340D01*
X1491595Y97418D01*
X1491549Y97494D01*
X1491499Y97569D01*
X1491446Y97641D01*
X1491390Y97710D01*
X1491331Y97777D01*
X1491270Y97842D01*
X1491205Y97903D01*
X1491138Y97962D01*
X1491069Y98018D01*
X1490997Y98071D01*
X1490922Y98121D01*
X1490846Y98167D01*
X1490768Y98210D01*
X1490688Y98249D01*
X1490606Y98285D01*
X1490523Y98318D01*
X1490438Y98346D01*
X1490353Y98371D01*
X1490266Y98393D01*
X1490178Y98410D01*
X1490090Y98423D01*
X1490001Y98433D01*
X1489912Y98439D01*
X1489823Y98441D01*
X1489734Y98439D01*
X1489645Y98433D01*
X1489556Y98423D01*
X1489468Y98410D01*
X1489380Y98393D01*
X1489293Y98371D01*
X1489208Y98346D01*
X1489123Y98318D01*
X1489040Y98285D01*
X1488958Y98249D01*
X1488878Y98210D01*
X1488800Y98167D01*
X1488724Y98121D01*
X1488649Y98071D01*
X1488577Y98018D01*
X1488508Y97962D01*
X1488441Y97903D01*
X1488376Y97842D01*
X1488315Y97777D01*
X1488256Y97710D01*
X1488200Y97641D01*
X1488147Y97569D01*
X1488097Y97494D01*
X1488051Y97418D01*
X1488008Y97340D01*
X1487969Y97260D01*
X1487933Y97178D01*
X1487900Y97095D01*
X1487872Y97010D01*
X1487847Y96925D01*
X1487825Y96838D01*
X1487808Y96750D01*
X1487795Y96662D01*
X1487785Y96573D01*
X1487779Y96484D01*
X1487777Y96395D01*
X1487777Y94349D01*
X1484503Y101598D02*
X1491869Y101598D01*
X1491869Y103644D01*
X1491867Y103733D01*
X1491861Y103822D01*
X1491851Y103911D01*
X1491838Y103999D01*
X1491821Y104087D01*
X1491799Y104174D01*
X1491774Y104259D01*
X1491746Y104344D01*
X1491713Y104427D01*
X1491677Y104509D01*
X1491638Y104589D01*
X1491595Y104667D01*
X1491549Y104743D01*
X1491499Y104818D01*
X1491446Y104890D01*
X1491390Y104959D01*
X1491331Y105026D01*
X1491270Y105091D01*
X1491205Y105152D01*
X1491138Y105211D01*
X1491069Y105267D01*
X1490997Y105320D01*
X1490922Y105370D01*
X1490846Y105416D01*
X1490768Y105459D01*
X1490688Y105498D01*
X1490606Y105534D01*
X1490523Y105567D01*
X1490438Y105595D01*
X1490353Y105620D01*
X1490266Y105642D01*
X1490178Y105659D01*
X1490090Y105672D01*
X1490001Y105682D01*
X1489912Y105688D01*
X1489823Y105690D01*
X1489734Y105688D01*
X1489645Y105682D01*
X1489556Y105672D01*
X1489468Y105659D01*
X1489380Y105642D01*
X1489293Y105620D01*
X1489208Y105595D01*
X1489123Y105567D01*
X1489040Y105534D01*
X1488958Y105498D01*
X1488878Y105459D01*
X1488800Y105416D01*
X1488724Y105370D01*
X1488649Y105320D01*
X1488577Y105267D01*
X1488508Y105211D01*
X1488441Y105152D01*
X1488376Y105091D01*
X1488315Y105026D01*
X1488256Y104959D01*
X1488200Y104890D01*
X1488147Y104818D01*
X1488097Y104743D01*
X1488051Y104667D01*
X1488008Y104589D01*
X1487969Y104509D01*
X1487933Y104427D01*
X1487900Y104344D01*
X1487872Y104259D01*
X1487847Y104174D01*
X1487825Y104087D01*
X1487808Y103999D01*
X1487795Y103911D01*
X1487785Y103822D01*
X1487779Y103733D01*
X1487777Y103644D01*
X1487777Y101598D01*
X1487777Y104053D02*
X1484503Y105690D01*
X1490232Y108862D02*
X1491869Y110908D01*
X1484503Y110908D01*
X1484503Y108862D02*
X1484503Y112954D01*
X1488595Y116177D02*
X1488595Y118632D01*
X1488593Y118710D01*
X1488588Y118788D01*
X1488578Y118865D01*
X1488565Y118942D01*
X1488549Y119018D01*
X1488529Y119093D01*
X1488505Y119167D01*
X1488478Y119240D01*
X1488447Y119312D01*
X1488413Y119382D01*
X1488376Y119451D01*
X1488335Y119517D01*
X1488291Y119582D01*
X1488245Y119644D01*
X1488195Y119704D01*
X1488143Y119762D01*
X1488088Y119817D01*
X1488030Y119869D01*
X1487970Y119919D01*
X1487908Y119965D01*
X1487843Y120009D01*
X1487777Y120050D01*
X1487708Y120087D01*
X1487638Y120121D01*
X1487566Y120152D01*
X1487493Y120179D01*
X1487419Y120203D01*
X1487344Y120223D01*
X1487268Y120239D01*
X1487191Y120252D01*
X1487114Y120262D01*
X1487036Y120267D01*
X1486958Y120269D01*
X1486549Y120269D01*
X1486460Y120267D01*
X1486371Y120261D01*
X1486282Y120251D01*
X1486194Y120238D01*
X1486106Y120221D01*
X1486019Y120199D01*
X1485934Y120174D01*
X1485849Y120146D01*
X1485766Y120113D01*
X1485684Y120077D01*
X1485604Y120038D01*
X1485526Y119995D01*
X1485450Y119949D01*
X1485375Y119899D01*
X1485303Y119846D01*
X1485234Y119790D01*
X1485167Y119731D01*
X1485102Y119670D01*
X1485041Y119605D01*
X1484982Y119538D01*
X1484926Y119469D01*
X1484873Y119397D01*
X1484823Y119322D01*
X1484777Y119246D01*
X1484734Y119168D01*
X1484695Y119088D01*
X1484659Y119006D01*
X1484626Y118923D01*
X1484598Y118838D01*
X1484573Y118753D01*
X1484551Y118666D01*
X1484534Y118578D01*
X1484521Y118490D01*
X1484511Y118401D01*
X1484505Y118312D01*
X1484503Y118223D01*
X1484505Y118134D01*
X1484511Y118045D01*
X1484521Y117956D01*
X1484534Y117868D01*
X1484551Y117780D01*
X1484573Y117693D01*
X1484598Y117608D01*
X1484626Y117523D01*
X1484659Y117440D01*
X1484695Y117358D01*
X1484734Y117278D01*
X1484777Y117200D01*
X1484823Y117124D01*
X1484873Y117049D01*
X1484926Y116977D01*
X1484982Y116908D01*
X1485041Y116841D01*
X1485102Y116776D01*
X1485167Y116715D01*
X1485234Y116656D01*
X1485303Y116600D01*
X1485375Y116547D01*
X1485450Y116497D01*
X1485526Y116451D01*
X1485604Y116408D01*
X1485684Y116369D01*
X1485766Y116333D01*
X1485849Y116300D01*
X1485934Y116272D01*
X1486019Y116247D01*
X1486106Y116225D01*
X1486194Y116208D01*
X1486282Y116195D01*
X1486371Y116185D01*
X1486460Y116179D01*
X1486549Y116177D01*
X1488595Y116177D01*
X1488709Y116179D01*
X1488823Y116185D01*
X1488937Y116195D01*
X1489051Y116209D01*
X1489164Y116227D01*
X1489276Y116249D01*
X1489387Y116274D01*
X1489497Y116304D01*
X1489607Y116337D01*
X1489715Y116374D01*
X1489821Y116415D01*
X1489927Y116460D01*
X1490030Y116508D01*
X1490132Y116560D01*
X1490232Y116616D01*
X1490330Y116674D01*
X1490426Y116737D01*
X1490519Y116802D01*
X1490611Y116871D01*
X1490699Y116943D01*
X1490786Y117018D01*
X1490869Y117096D01*
X1490950Y117177D01*
X1491028Y117260D01*
X1491103Y117347D01*
X1491175Y117435D01*
X1491244Y117527D01*
X1491309Y117620D01*
X1491371Y117716D01*
X1491430Y117814D01*
X1491486Y117914D01*
X1491538Y118016D01*
X1491586Y118119D01*
X1491631Y118225D01*
X1491672Y118331D01*
X1491709Y118439D01*
X1491742Y118549D01*
X1491772Y118659D01*
X1491797Y118770D01*
X1491819Y118882D01*
X1491837Y118995D01*
X1491851Y119109D01*
X1491861Y119223D01*
X1491867Y119337D01*
X1491869Y119451D01*
X1522603Y74088D02*
X1529969Y74088D01*
X1529969Y72042D02*
X1529969Y76134D01*
X1522603Y79129D02*
X1522603Y82403D01*
X1522603Y79129D02*
X1529969Y79129D01*
X1529969Y82403D01*
X1526695Y81584D02*
X1526695Y79129D01*
X1529969Y85531D02*
X1522603Y85531D01*
X1525877Y87987D02*
X1529969Y85531D01*
X1525877Y87987D02*
X1529969Y90442D01*
X1522603Y90442D01*
X1522603Y94349D02*
X1529969Y94349D01*
X1529969Y96395D01*
X1529967Y96484D01*
X1529961Y96573D01*
X1529951Y96662D01*
X1529938Y96750D01*
X1529921Y96838D01*
X1529899Y96925D01*
X1529874Y97010D01*
X1529846Y97095D01*
X1529813Y97178D01*
X1529777Y97260D01*
X1529738Y97340D01*
X1529695Y97418D01*
X1529649Y97494D01*
X1529599Y97569D01*
X1529546Y97641D01*
X1529490Y97710D01*
X1529431Y97777D01*
X1529370Y97842D01*
X1529305Y97903D01*
X1529238Y97962D01*
X1529169Y98018D01*
X1529097Y98071D01*
X1529022Y98121D01*
X1528946Y98167D01*
X1528868Y98210D01*
X1528788Y98249D01*
X1528706Y98285D01*
X1528623Y98318D01*
X1528538Y98346D01*
X1528453Y98371D01*
X1528366Y98393D01*
X1528278Y98410D01*
X1528190Y98423D01*
X1528101Y98433D01*
X1528012Y98439D01*
X1527923Y98441D01*
X1527834Y98439D01*
X1527745Y98433D01*
X1527656Y98423D01*
X1527568Y98410D01*
X1527480Y98393D01*
X1527393Y98371D01*
X1527308Y98346D01*
X1527223Y98318D01*
X1527140Y98285D01*
X1527058Y98249D01*
X1526978Y98210D01*
X1526900Y98167D01*
X1526824Y98121D01*
X1526749Y98071D01*
X1526677Y98018D01*
X1526608Y97962D01*
X1526541Y97903D01*
X1526476Y97842D01*
X1526415Y97777D01*
X1526356Y97710D01*
X1526300Y97641D01*
X1526247Y97569D01*
X1526197Y97494D01*
X1526151Y97418D01*
X1526108Y97340D01*
X1526069Y97260D01*
X1526033Y97178D01*
X1526000Y97095D01*
X1525972Y97010D01*
X1525947Y96925D01*
X1525925Y96838D01*
X1525908Y96750D01*
X1525895Y96662D01*
X1525885Y96573D01*
X1525879Y96484D01*
X1525877Y96395D01*
X1525877Y94349D01*
X1522603Y101598D02*
X1529969Y101598D01*
X1529969Y103644D01*
X1529967Y103733D01*
X1529961Y103822D01*
X1529951Y103911D01*
X1529938Y103999D01*
X1529921Y104087D01*
X1529899Y104174D01*
X1529874Y104259D01*
X1529846Y104344D01*
X1529813Y104427D01*
X1529777Y104509D01*
X1529738Y104589D01*
X1529695Y104667D01*
X1529649Y104743D01*
X1529599Y104818D01*
X1529546Y104890D01*
X1529490Y104959D01*
X1529431Y105026D01*
X1529370Y105091D01*
X1529305Y105152D01*
X1529238Y105211D01*
X1529169Y105267D01*
X1529097Y105320D01*
X1529022Y105370D01*
X1528946Y105416D01*
X1528868Y105459D01*
X1528788Y105498D01*
X1528706Y105534D01*
X1528623Y105567D01*
X1528538Y105595D01*
X1528453Y105620D01*
X1528366Y105642D01*
X1528278Y105659D01*
X1528190Y105672D01*
X1528101Y105682D01*
X1528012Y105688D01*
X1527923Y105690D01*
X1527834Y105688D01*
X1527745Y105682D01*
X1527656Y105672D01*
X1527568Y105659D01*
X1527480Y105642D01*
X1527393Y105620D01*
X1527308Y105595D01*
X1527223Y105567D01*
X1527140Y105534D01*
X1527058Y105498D01*
X1526978Y105459D01*
X1526900Y105416D01*
X1526824Y105370D01*
X1526749Y105320D01*
X1526677Y105267D01*
X1526608Y105211D01*
X1526541Y105152D01*
X1526476Y105091D01*
X1526415Y105026D01*
X1526356Y104959D01*
X1526300Y104890D01*
X1526247Y104818D01*
X1526197Y104743D01*
X1526151Y104667D01*
X1526108Y104589D01*
X1526069Y104509D01*
X1526033Y104427D01*
X1526000Y104344D01*
X1525972Y104259D01*
X1525947Y104174D01*
X1525925Y104087D01*
X1525908Y103999D01*
X1525895Y103911D01*
X1525885Y103822D01*
X1525879Y103733D01*
X1525877Y103644D01*
X1525877Y101598D01*
X1525877Y104053D02*
X1522603Y105690D01*
X1528332Y108862D02*
X1529969Y110908D01*
X1522603Y110908D01*
X1522603Y108862D02*
X1522603Y112954D01*
X1522603Y116177D02*
X1522603Y118632D01*
X1522605Y118712D01*
X1522611Y118792D01*
X1522621Y118872D01*
X1522634Y118951D01*
X1522652Y119030D01*
X1522673Y119107D01*
X1522699Y119183D01*
X1522728Y119258D01*
X1522760Y119332D01*
X1522796Y119404D01*
X1522836Y119474D01*
X1522879Y119541D01*
X1522925Y119607D01*
X1522975Y119670D01*
X1523027Y119731D01*
X1523082Y119790D01*
X1523141Y119845D01*
X1523201Y119897D01*
X1523265Y119947D01*
X1523331Y119993D01*
X1523398Y120036D01*
X1523468Y120076D01*
X1523540Y120112D01*
X1523614Y120144D01*
X1523688Y120173D01*
X1523765Y120199D01*
X1523842Y120220D01*
X1523921Y120238D01*
X1524000Y120251D01*
X1524080Y120261D01*
X1524160Y120267D01*
X1524240Y120269D01*
X1525058Y120269D01*
X1525136Y120267D01*
X1525214Y120262D01*
X1525291Y120252D01*
X1525368Y120239D01*
X1525444Y120223D01*
X1525519Y120203D01*
X1525593Y120179D01*
X1525666Y120152D01*
X1525738Y120121D01*
X1525808Y120087D01*
X1525877Y120050D01*
X1525943Y120009D01*
X1526008Y119965D01*
X1526070Y119919D01*
X1526130Y119869D01*
X1526188Y119817D01*
X1526243Y119762D01*
X1526295Y119704D01*
X1526345Y119644D01*
X1526391Y119582D01*
X1526435Y119517D01*
X1526476Y119451D01*
X1526513Y119382D01*
X1526547Y119312D01*
X1526578Y119240D01*
X1526605Y119167D01*
X1526629Y119093D01*
X1526649Y119018D01*
X1526665Y118942D01*
X1526678Y118865D01*
X1526688Y118788D01*
X1526693Y118710D01*
X1526695Y118632D01*
X1526695Y116177D01*
X1529969Y116177D01*
X1529969Y120269D01*
X1567053Y74088D02*
X1574419Y74088D01*
X1574419Y72042D02*
X1574419Y76134D01*
X1567053Y79129D02*
X1567053Y82403D01*
X1567053Y79129D02*
X1574419Y79129D01*
X1574419Y82403D01*
X1571145Y81584D02*
X1571145Y79129D01*
X1574419Y85531D02*
X1567053Y85531D01*
X1570327Y87987D02*
X1574419Y85531D01*
X1570327Y87987D02*
X1574419Y90442D01*
X1567053Y90442D01*
X1567053Y94349D02*
X1574419Y94349D01*
X1574419Y96395D01*
X1574417Y96484D01*
X1574411Y96573D01*
X1574401Y96662D01*
X1574388Y96750D01*
X1574371Y96838D01*
X1574349Y96925D01*
X1574324Y97010D01*
X1574296Y97095D01*
X1574263Y97178D01*
X1574227Y97260D01*
X1574188Y97340D01*
X1574145Y97418D01*
X1574099Y97494D01*
X1574049Y97569D01*
X1573996Y97641D01*
X1573940Y97710D01*
X1573881Y97777D01*
X1573820Y97842D01*
X1573755Y97903D01*
X1573688Y97962D01*
X1573619Y98018D01*
X1573547Y98071D01*
X1573472Y98121D01*
X1573396Y98167D01*
X1573318Y98210D01*
X1573238Y98249D01*
X1573156Y98285D01*
X1573073Y98318D01*
X1572988Y98346D01*
X1572903Y98371D01*
X1572816Y98393D01*
X1572728Y98410D01*
X1572640Y98423D01*
X1572551Y98433D01*
X1572462Y98439D01*
X1572373Y98441D01*
X1572284Y98439D01*
X1572195Y98433D01*
X1572106Y98423D01*
X1572018Y98410D01*
X1571930Y98393D01*
X1571843Y98371D01*
X1571758Y98346D01*
X1571673Y98318D01*
X1571590Y98285D01*
X1571508Y98249D01*
X1571428Y98210D01*
X1571350Y98167D01*
X1571274Y98121D01*
X1571199Y98071D01*
X1571127Y98018D01*
X1571058Y97962D01*
X1570991Y97903D01*
X1570926Y97842D01*
X1570865Y97777D01*
X1570806Y97710D01*
X1570750Y97641D01*
X1570697Y97569D01*
X1570647Y97494D01*
X1570601Y97418D01*
X1570558Y97340D01*
X1570519Y97260D01*
X1570483Y97178D01*
X1570450Y97095D01*
X1570422Y97010D01*
X1570397Y96925D01*
X1570375Y96838D01*
X1570358Y96750D01*
X1570345Y96662D01*
X1570335Y96573D01*
X1570329Y96484D01*
X1570327Y96395D01*
X1570327Y94349D01*
X1567053Y101598D02*
X1574419Y101598D01*
X1574419Y103644D01*
X1574417Y103733D01*
X1574411Y103822D01*
X1574401Y103911D01*
X1574388Y103999D01*
X1574371Y104087D01*
X1574349Y104174D01*
X1574324Y104259D01*
X1574296Y104344D01*
X1574263Y104427D01*
X1574227Y104509D01*
X1574188Y104589D01*
X1574145Y104667D01*
X1574099Y104743D01*
X1574049Y104818D01*
X1573996Y104890D01*
X1573940Y104959D01*
X1573881Y105026D01*
X1573820Y105091D01*
X1573755Y105152D01*
X1573688Y105211D01*
X1573619Y105267D01*
X1573547Y105320D01*
X1573472Y105370D01*
X1573396Y105416D01*
X1573318Y105459D01*
X1573238Y105498D01*
X1573156Y105534D01*
X1573073Y105567D01*
X1572988Y105595D01*
X1572903Y105620D01*
X1572816Y105642D01*
X1572728Y105659D01*
X1572640Y105672D01*
X1572551Y105682D01*
X1572462Y105688D01*
X1572373Y105690D01*
X1572284Y105688D01*
X1572195Y105682D01*
X1572106Y105672D01*
X1572018Y105659D01*
X1571930Y105642D01*
X1571843Y105620D01*
X1571758Y105595D01*
X1571673Y105567D01*
X1571590Y105534D01*
X1571508Y105498D01*
X1571428Y105459D01*
X1571350Y105416D01*
X1571274Y105370D01*
X1571199Y105320D01*
X1571127Y105267D01*
X1571058Y105211D01*
X1570991Y105152D01*
X1570926Y105091D01*
X1570865Y105026D01*
X1570806Y104959D01*
X1570750Y104890D01*
X1570697Y104818D01*
X1570647Y104743D01*
X1570601Y104667D01*
X1570558Y104589D01*
X1570519Y104509D01*
X1570483Y104427D01*
X1570450Y104344D01*
X1570422Y104259D01*
X1570397Y104174D01*
X1570375Y104087D01*
X1570358Y103999D01*
X1570345Y103911D01*
X1570335Y103822D01*
X1570329Y103733D01*
X1570327Y103644D01*
X1570327Y101598D01*
X1570327Y104053D02*
X1567053Y105690D01*
X1572782Y108862D02*
X1574419Y110908D01*
X1567053Y110908D01*
X1567053Y108862D02*
X1567053Y112954D01*
X1568690Y116177D02*
X1574419Y117814D01*
X1568690Y116177D02*
X1568690Y120269D01*
X1570327Y119041D02*
X1567053Y119041D01*
X1605153Y74088D02*
X1612519Y74088D01*
X1612519Y72042D02*
X1612519Y76134D01*
X1605153Y79129D02*
X1605153Y82403D01*
X1605153Y79129D02*
X1612519Y79129D01*
X1612519Y82403D01*
X1609245Y81584D02*
X1609245Y79129D01*
X1612519Y85531D02*
X1605153Y85531D01*
X1608427Y87987D02*
X1612519Y85531D01*
X1608427Y87987D02*
X1612519Y90442D01*
X1605153Y90442D01*
X1605153Y94349D02*
X1612519Y94349D01*
X1612519Y96395D01*
X1612517Y96484D01*
X1612511Y96573D01*
X1612501Y96662D01*
X1612488Y96750D01*
X1612471Y96838D01*
X1612449Y96925D01*
X1612424Y97010D01*
X1612396Y97095D01*
X1612363Y97178D01*
X1612327Y97260D01*
X1612288Y97340D01*
X1612245Y97418D01*
X1612199Y97494D01*
X1612149Y97569D01*
X1612096Y97641D01*
X1612040Y97710D01*
X1611981Y97777D01*
X1611920Y97842D01*
X1611855Y97903D01*
X1611788Y97962D01*
X1611719Y98018D01*
X1611647Y98071D01*
X1611572Y98121D01*
X1611496Y98167D01*
X1611418Y98210D01*
X1611338Y98249D01*
X1611256Y98285D01*
X1611173Y98318D01*
X1611088Y98346D01*
X1611003Y98371D01*
X1610916Y98393D01*
X1610828Y98410D01*
X1610740Y98423D01*
X1610651Y98433D01*
X1610562Y98439D01*
X1610473Y98441D01*
X1610384Y98439D01*
X1610295Y98433D01*
X1610206Y98423D01*
X1610118Y98410D01*
X1610030Y98393D01*
X1609943Y98371D01*
X1609858Y98346D01*
X1609773Y98318D01*
X1609690Y98285D01*
X1609608Y98249D01*
X1609528Y98210D01*
X1609450Y98167D01*
X1609374Y98121D01*
X1609299Y98071D01*
X1609227Y98018D01*
X1609158Y97962D01*
X1609091Y97903D01*
X1609026Y97842D01*
X1608965Y97777D01*
X1608906Y97710D01*
X1608850Y97641D01*
X1608797Y97569D01*
X1608747Y97494D01*
X1608701Y97418D01*
X1608658Y97340D01*
X1608619Y97260D01*
X1608583Y97178D01*
X1608550Y97095D01*
X1608522Y97010D01*
X1608497Y96925D01*
X1608475Y96838D01*
X1608458Y96750D01*
X1608445Y96662D01*
X1608435Y96573D01*
X1608429Y96484D01*
X1608427Y96395D01*
X1608427Y94349D01*
X1605153Y101598D02*
X1612519Y101598D01*
X1612519Y103644D01*
X1612517Y103733D01*
X1612511Y103822D01*
X1612501Y103911D01*
X1612488Y103999D01*
X1612471Y104087D01*
X1612449Y104174D01*
X1612424Y104259D01*
X1612396Y104344D01*
X1612363Y104427D01*
X1612327Y104509D01*
X1612288Y104589D01*
X1612245Y104667D01*
X1612199Y104743D01*
X1612149Y104818D01*
X1612096Y104890D01*
X1612040Y104959D01*
X1611981Y105026D01*
X1611920Y105091D01*
X1611855Y105152D01*
X1611788Y105211D01*
X1611719Y105267D01*
X1611647Y105320D01*
X1611572Y105370D01*
X1611496Y105416D01*
X1611418Y105459D01*
X1611338Y105498D01*
X1611256Y105534D01*
X1611173Y105567D01*
X1611088Y105595D01*
X1611003Y105620D01*
X1610916Y105642D01*
X1610828Y105659D01*
X1610740Y105672D01*
X1610651Y105682D01*
X1610562Y105688D01*
X1610473Y105690D01*
X1610384Y105688D01*
X1610295Y105682D01*
X1610206Y105672D01*
X1610118Y105659D01*
X1610030Y105642D01*
X1609943Y105620D01*
X1609858Y105595D01*
X1609773Y105567D01*
X1609690Y105534D01*
X1609608Y105498D01*
X1609528Y105459D01*
X1609450Y105416D01*
X1609374Y105370D01*
X1609299Y105320D01*
X1609227Y105267D01*
X1609158Y105211D01*
X1609091Y105152D01*
X1609026Y105091D01*
X1608965Y105026D01*
X1608906Y104959D01*
X1608850Y104890D01*
X1608797Y104818D01*
X1608747Y104743D01*
X1608701Y104667D01*
X1608658Y104589D01*
X1608619Y104509D01*
X1608583Y104427D01*
X1608550Y104344D01*
X1608522Y104259D01*
X1608497Y104174D01*
X1608475Y104087D01*
X1608458Y103999D01*
X1608445Y103911D01*
X1608435Y103822D01*
X1608429Y103733D01*
X1608427Y103644D01*
X1608427Y101598D01*
X1608427Y104053D02*
X1605153Y105690D01*
X1610882Y108862D02*
X1612519Y110908D01*
X1605153Y110908D01*
X1605153Y108862D02*
X1605153Y112954D01*
X1605153Y116177D02*
X1605153Y118223D01*
X1605155Y118312D01*
X1605161Y118401D01*
X1605171Y118490D01*
X1605184Y118578D01*
X1605201Y118666D01*
X1605223Y118753D01*
X1605248Y118838D01*
X1605276Y118923D01*
X1605309Y119006D01*
X1605345Y119088D01*
X1605384Y119168D01*
X1605427Y119246D01*
X1605473Y119322D01*
X1605523Y119397D01*
X1605576Y119469D01*
X1605632Y119538D01*
X1605691Y119605D01*
X1605752Y119670D01*
X1605817Y119731D01*
X1605884Y119790D01*
X1605953Y119846D01*
X1606025Y119899D01*
X1606100Y119949D01*
X1606176Y119995D01*
X1606254Y120038D01*
X1606334Y120077D01*
X1606416Y120113D01*
X1606499Y120146D01*
X1606584Y120174D01*
X1606669Y120199D01*
X1606756Y120221D01*
X1606844Y120238D01*
X1606932Y120251D01*
X1607021Y120261D01*
X1607110Y120267D01*
X1607199Y120269D01*
X1607288Y120267D01*
X1607377Y120261D01*
X1607466Y120251D01*
X1607554Y120238D01*
X1607642Y120221D01*
X1607729Y120199D01*
X1607814Y120174D01*
X1607899Y120146D01*
X1607982Y120113D01*
X1608064Y120077D01*
X1608144Y120038D01*
X1608222Y119995D01*
X1608298Y119949D01*
X1608373Y119899D01*
X1608445Y119846D01*
X1608514Y119790D01*
X1608581Y119731D01*
X1608646Y119670D01*
X1608707Y119605D01*
X1608766Y119538D01*
X1608822Y119469D01*
X1608875Y119397D01*
X1608925Y119322D01*
X1608971Y119246D01*
X1609014Y119168D01*
X1609053Y119088D01*
X1609089Y119006D01*
X1609122Y118923D01*
X1609150Y118838D01*
X1609175Y118753D01*
X1609197Y118666D01*
X1609214Y118578D01*
X1609227Y118490D01*
X1609237Y118401D01*
X1609243Y118312D01*
X1609245Y118223D01*
X1612519Y118632D02*
X1612519Y116177D01*
X1612519Y118632D02*
X1612517Y118711D01*
X1612511Y118790D01*
X1612502Y118869D01*
X1612489Y118947D01*
X1612471Y119024D01*
X1612451Y119100D01*
X1612426Y119175D01*
X1612398Y119249D01*
X1612367Y119322D01*
X1612331Y119393D01*
X1612293Y119462D01*
X1612251Y119529D01*
X1612206Y119594D01*
X1612158Y119657D01*
X1612107Y119718D01*
X1612053Y119775D01*
X1611997Y119831D01*
X1611938Y119883D01*
X1611876Y119933D01*
X1611812Y119979D01*
X1611746Y120023D01*
X1611678Y120063D01*
X1611608Y120099D01*
X1611536Y120133D01*
X1611462Y120163D01*
X1611388Y120189D01*
X1611312Y120212D01*
X1611235Y120230D01*
X1611158Y120246D01*
X1611079Y120257D01*
X1611001Y120265D01*
X1610922Y120269D01*
X1610842Y120269D01*
X1610763Y120265D01*
X1610685Y120257D01*
X1610606Y120246D01*
X1610529Y120230D01*
X1610452Y120212D01*
X1610376Y120189D01*
X1610302Y120163D01*
X1610228Y120133D01*
X1610156Y120099D01*
X1610086Y120063D01*
X1610018Y120023D01*
X1609952Y119979D01*
X1609888Y119933D01*
X1609826Y119883D01*
X1609767Y119831D01*
X1609711Y119775D01*
X1609657Y119718D01*
X1609606Y119657D01*
X1609558Y119594D01*
X1609513Y119529D01*
X1609471Y119462D01*
X1609433Y119393D01*
X1609397Y119322D01*
X1609366Y119249D01*
X1609338Y119175D01*
X1609313Y119100D01*
X1609293Y119024D01*
X1609275Y118947D01*
X1609262Y118869D01*
X1609253Y118790D01*
X1609247Y118711D01*
X1609245Y118632D01*
X1609245Y116995D01*
X1649603Y74088D02*
X1656969Y74088D01*
X1656969Y72042D02*
X1656969Y76134D01*
X1649603Y79129D02*
X1649603Y82403D01*
X1649603Y79129D02*
X1656969Y79129D01*
X1656969Y82403D01*
X1653695Y81584D02*
X1653695Y79129D01*
X1656969Y85531D02*
X1649603Y85531D01*
X1652877Y87987D02*
X1656969Y85531D01*
X1652877Y87987D02*
X1656969Y90442D01*
X1649603Y90442D01*
X1649603Y94349D02*
X1656969Y94349D01*
X1656969Y96395D01*
X1656967Y96484D01*
X1656961Y96573D01*
X1656951Y96662D01*
X1656938Y96750D01*
X1656921Y96838D01*
X1656899Y96925D01*
X1656874Y97010D01*
X1656846Y97095D01*
X1656813Y97178D01*
X1656777Y97260D01*
X1656738Y97340D01*
X1656695Y97418D01*
X1656649Y97494D01*
X1656599Y97569D01*
X1656546Y97641D01*
X1656490Y97710D01*
X1656431Y97777D01*
X1656370Y97842D01*
X1656305Y97903D01*
X1656238Y97962D01*
X1656169Y98018D01*
X1656097Y98071D01*
X1656022Y98121D01*
X1655946Y98167D01*
X1655868Y98210D01*
X1655788Y98249D01*
X1655706Y98285D01*
X1655623Y98318D01*
X1655538Y98346D01*
X1655453Y98371D01*
X1655366Y98393D01*
X1655278Y98410D01*
X1655190Y98423D01*
X1655101Y98433D01*
X1655012Y98439D01*
X1654923Y98441D01*
X1654834Y98439D01*
X1654745Y98433D01*
X1654656Y98423D01*
X1654568Y98410D01*
X1654480Y98393D01*
X1654393Y98371D01*
X1654308Y98346D01*
X1654223Y98318D01*
X1654140Y98285D01*
X1654058Y98249D01*
X1653978Y98210D01*
X1653900Y98167D01*
X1653824Y98121D01*
X1653749Y98071D01*
X1653677Y98018D01*
X1653608Y97962D01*
X1653541Y97903D01*
X1653476Y97842D01*
X1653415Y97777D01*
X1653356Y97710D01*
X1653300Y97641D01*
X1653247Y97569D01*
X1653197Y97494D01*
X1653151Y97418D01*
X1653108Y97340D01*
X1653069Y97260D01*
X1653033Y97178D01*
X1653000Y97095D01*
X1652972Y97010D01*
X1652947Y96925D01*
X1652925Y96838D01*
X1652908Y96750D01*
X1652895Y96662D01*
X1652885Y96573D01*
X1652879Y96484D01*
X1652877Y96395D01*
X1652877Y94349D01*
X1649603Y101598D02*
X1656969Y101598D01*
X1656969Y103644D01*
X1656967Y103733D01*
X1656961Y103822D01*
X1656951Y103911D01*
X1656938Y103999D01*
X1656921Y104087D01*
X1656899Y104174D01*
X1656874Y104259D01*
X1656846Y104344D01*
X1656813Y104427D01*
X1656777Y104509D01*
X1656738Y104589D01*
X1656695Y104667D01*
X1656649Y104743D01*
X1656599Y104818D01*
X1656546Y104890D01*
X1656490Y104959D01*
X1656431Y105026D01*
X1656370Y105091D01*
X1656305Y105152D01*
X1656238Y105211D01*
X1656169Y105267D01*
X1656097Y105320D01*
X1656022Y105370D01*
X1655946Y105416D01*
X1655868Y105459D01*
X1655788Y105498D01*
X1655706Y105534D01*
X1655623Y105567D01*
X1655538Y105595D01*
X1655453Y105620D01*
X1655366Y105642D01*
X1655278Y105659D01*
X1655190Y105672D01*
X1655101Y105682D01*
X1655012Y105688D01*
X1654923Y105690D01*
X1654834Y105688D01*
X1654745Y105682D01*
X1654656Y105672D01*
X1654568Y105659D01*
X1654480Y105642D01*
X1654393Y105620D01*
X1654308Y105595D01*
X1654223Y105567D01*
X1654140Y105534D01*
X1654058Y105498D01*
X1653978Y105459D01*
X1653900Y105416D01*
X1653824Y105370D01*
X1653749Y105320D01*
X1653677Y105267D01*
X1653608Y105211D01*
X1653541Y105152D01*
X1653476Y105091D01*
X1653415Y105026D01*
X1653356Y104959D01*
X1653300Y104890D01*
X1653247Y104818D01*
X1653197Y104743D01*
X1653151Y104667D01*
X1653108Y104589D01*
X1653069Y104509D01*
X1653033Y104427D01*
X1653000Y104344D01*
X1652972Y104259D01*
X1652947Y104174D01*
X1652925Y104087D01*
X1652908Y103999D01*
X1652895Y103911D01*
X1652885Y103822D01*
X1652879Y103733D01*
X1652877Y103644D01*
X1652877Y101598D01*
X1652877Y104053D02*
X1649603Y105690D01*
X1655332Y108862D02*
X1656969Y110908D01*
X1649603Y110908D01*
X1649603Y108862D02*
X1649603Y112954D01*
X1655128Y120270D02*
X1655213Y120268D01*
X1655298Y120262D01*
X1655382Y120252D01*
X1655466Y120239D01*
X1655550Y120221D01*
X1655632Y120200D01*
X1655713Y120175D01*
X1655793Y120146D01*
X1655872Y120113D01*
X1655949Y120077D01*
X1656024Y120037D01*
X1656098Y119994D01*
X1656169Y119948D01*
X1656238Y119898D01*
X1656305Y119845D01*
X1656369Y119789D01*
X1656430Y119730D01*
X1656489Y119669D01*
X1656545Y119605D01*
X1656598Y119538D01*
X1656648Y119469D01*
X1656694Y119398D01*
X1656737Y119324D01*
X1656777Y119249D01*
X1656813Y119172D01*
X1656846Y119093D01*
X1656875Y119013D01*
X1656900Y118932D01*
X1656921Y118850D01*
X1656939Y118766D01*
X1656952Y118682D01*
X1656962Y118598D01*
X1656968Y118513D01*
X1656970Y118428D01*
X1656969Y118428D02*
X1656967Y118332D01*
X1656961Y118236D01*
X1656951Y118141D01*
X1656938Y118046D01*
X1656920Y117951D01*
X1656899Y117858D01*
X1656874Y117765D01*
X1656845Y117674D01*
X1656813Y117583D01*
X1656777Y117494D01*
X1656737Y117407D01*
X1656694Y117321D01*
X1656648Y117237D01*
X1656598Y117155D01*
X1656544Y117075D01*
X1656488Y116998D01*
X1656428Y116923D01*
X1656366Y116850D01*
X1656300Y116780D01*
X1656232Y116712D01*
X1656161Y116647D01*
X1656088Y116586D01*
X1656012Y116527D01*
X1655933Y116471D01*
X1655853Y116419D01*
X1655770Y116370D01*
X1655686Y116324D01*
X1655600Y116282D01*
X1655512Y116244D01*
X1655423Y116209D01*
X1655332Y116177D01*
X1653696Y119655D02*
X1653755Y119715D01*
X1653817Y119772D01*
X1653881Y119827D01*
X1653948Y119878D01*
X1654017Y119927D01*
X1654087Y119973D01*
X1654160Y120016D01*
X1654234Y120056D01*
X1654310Y120092D01*
X1654388Y120125D01*
X1654467Y120155D01*
X1654547Y120182D01*
X1654628Y120205D01*
X1654710Y120224D01*
X1654792Y120240D01*
X1654876Y120253D01*
X1654960Y120262D01*
X1655044Y120267D01*
X1655128Y120269D01*
X1653695Y119655D02*
X1649603Y116177D01*
X1649603Y120269D01*
X1694053Y74088D02*
X1701419Y74088D01*
X1701419Y72042D02*
X1701419Y76134D01*
X1694053Y79129D02*
X1694053Y82403D01*
X1694053Y79129D02*
X1701419Y79129D01*
X1701419Y82403D01*
X1698145Y81584D02*
X1698145Y79129D01*
X1701419Y85531D02*
X1694053Y85531D01*
X1697327Y87987D02*
X1701419Y85531D01*
X1697327Y87987D02*
X1701419Y90442D01*
X1694053Y90442D01*
X1694053Y94349D02*
X1701419Y94349D01*
X1701419Y96395D01*
X1701417Y96484D01*
X1701411Y96573D01*
X1701401Y96662D01*
X1701388Y96750D01*
X1701371Y96838D01*
X1701349Y96925D01*
X1701324Y97010D01*
X1701296Y97095D01*
X1701263Y97178D01*
X1701227Y97260D01*
X1701188Y97340D01*
X1701145Y97418D01*
X1701099Y97494D01*
X1701049Y97569D01*
X1700996Y97641D01*
X1700940Y97710D01*
X1700881Y97777D01*
X1700820Y97842D01*
X1700755Y97903D01*
X1700688Y97962D01*
X1700619Y98018D01*
X1700547Y98071D01*
X1700472Y98121D01*
X1700396Y98167D01*
X1700318Y98210D01*
X1700238Y98249D01*
X1700156Y98285D01*
X1700073Y98318D01*
X1699988Y98346D01*
X1699903Y98371D01*
X1699816Y98393D01*
X1699728Y98410D01*
X1699640Y98423D01*
X1699551Y98433D01*
X1699462Y98439D01*
X1699373Y98441D01*
X1699284Y98439D01*
X1699195Y98433D01*
X1699106Y98423D01*
X1699018Y98410D01*
X1698930Y98393D01*
X1698843Y98371D01*
X1698758Y98346D01*
X1698673Y98318D01*
X1698590Y98285D01*
X1698508Y98249D01*
X1698428Y98210D01*
X1698350Y98167D01*
X1698274Y98121D01*
X1698199Y98071D01*
X1698127Y98018D01*
X1698058Y97962D01*
X1697991Y97903D01*
X1697926Y97842D01*
X1697865Y97777D01*
X1697806Y97710D01*
X1697750Y97641D01*
X1697697Y97569D01*
X1697647Y97494D01*
X1697601Y97418D01*
X1697558Y97340D01*
X1697519Y97260D01*
X1697483Y97178D01*
X1697450Y97095D01*
X1697422Y97010D01*
X1697397Y96925D01*
X1697375Y96838D01*
X1697358Y96750D01*
X1697345Y96662D01*
X1697335Y96573D01*
X1697329Y96484D01*
X1697327Y96395D01*
X1697327Y94349D01*
X1694053Y101598D02*
X1701419Y101598D01*
X1701419Y103644D01*
X1701417Y103733D01*
X1701411Y103822D01*
X1701401Y103911D01*
X1701388Y103999D01*
X1701371Y104087D01*
X1701349Y104174D01*
X1701324Y104259D01*
X1701296Y104344D01*
X1701263Y104427D01*
X1701227Y104509D01*
X1701188Y104589D01*
X1701145Y104667D01*
X1701099Y104743D01*
X1701049Y104818D01*
X1700996Y104890D01*
X1700940Y104959D01*
X1700881Y105026D01*
X1700820Y105091D01*
X1700755Y105152D01*
X1700688Y105211D01*
X1700619Y105267D01*
X1700547Y105320D01*
X1700472Y105370D01*
X1700396Y105416D01*
X1700318Y105459D01*
X1700238Y105498D01*
X1700156Y105534D01*
X1700073Y105567D01*
X1699988Y105595D01*
X1699903Y105620D01*
X1699816Y105642D01*
X1699728Y105659D01*
X1699640Y105672D01*
X1699551Y105682D01*
X1699462Y105688D01*
X1699373Y105690D01*
X1699284Y105688D01*
X1699195Y105682D01*
X1699106Y105672D01*
X1699018Y105659D01*
X1698930Y105642D01*
X1698843Y105620D01*
X1698758Y105595D01*
X1698673Y105567D01*
X1698590Y105534D01*
X1698508Y105498D01*
X1698428Y105459D01*
X1698350Y105416D01*
X1698274Y105370D01*
X1698199Y105320D01*
X1698127Y105267D01*
X1698058Y105211D01*
X1697991Y105152D01*
X1697926Y105091D01*
X1697865Y105026D01*
X1697806Y104959D01*
X1697750Y104890D01*
X1697697Y104818D01*
X1697647Y104743D01*
X1697601Y104667D01*
X1697558Y104589D01*
X1697519Y104509D01*
X1697483Y104427D01*
X1697450Y104344D01*
X1697422Y104259D01*
X1697397Y104174D01*
X1697375Y104087D01*
X1697358Y103999D01*
X1697345Y103911D01*
X1697335Y103822D01*
X1697329Y103733D01*
X1697327Y103644D01*
X1697327Y101598D01*
X1697327Y104053D02*
X1694053Y105690D01*
X1699782Y108862D02*
X1701419Y110908D01*
X1694053Y110908D01*
X1694053Y108862D02*
X1694053Y112954D01*
X1699782Y116177D02*
X1701419Y118223D01*
X1694053Y118223D01*
X1694053Y116177D02*
X1694053Y120269D01*
X1738503Y74088D02*
X1745869Y74088D01*
X1745869Y72042D02*
X1745869Y76134D01*
X1738503Y79129D02*
X1738503Y82403D01*
X1738503Y79129D02*
X1745869Y79129D01*
X1745869Y82403D01*
X1742595Y81584D02*
X1742595Y79129D01*
X1745869Y85531D02*
X1738503Y85531D01*
X1741777Y87987D02*
X1745869Y85531D01*
X1741777Y87987D02*
X1745869Y90442D01*
X1738503Y90442D01*
X1738503Y94349D02*
X1745869Y94349D01*
X1745869Y96395D01*
X1745867Y96484D01*
X1745861Y96573D01*
X1745851Y96662D01*
X1745838Y96750D01*
X1745821Y96838D01*
X1745799Y96925D01*
X1745774Y97010D01*
X1745746Y97095D01*
X1745713Y97178D01*
X1745677Y97260D01*
X1745638Y97340D01*
X1745595Y97418D01*
X1745549Y97494D01*
X1745499Y97569D01*
X1745446Y97641D01*
X1745390Y97710D01*
X1745331Y97777D01*
X1745270Y97842D01*
X1745205Y97903D01*
X1745138Y97962D01*
X1745069Y98018D01*
X1744997Y98071D01*
X1744922Y98121D01*
X1744846Y98167D01*
X1744768Y98210D01*
X1744688Y98249D01*
X1744606Y98285D01*
X1744523Y98318D01*
X1744438Y98346D01*
X1744353Y98371D01*
X1744266Y98393D01*
X1744178Y98410D01*
X1744090Y98423D01*
X1744001Y98433D01*
X1743912Y98439D01*
X1743823Y98441D01*
X1743734Y98439D01*
X1743645Y98433D01*
X1743556Y98423D01*
X1743468Y98410D01*
X1743380Y98393D01*
X1743293Y98371D01*
X1743208Y98346D01*
X1743123Y98318D01*
X1743040Y98285D01*
X1742958Y98249D01*
X1742878Y98210D01*
X1742800Y98167D01*
X1742724Y98121D01*
X1742649Y98071D01*
X1742577Y98018D01*
X1742508Y97962D01*
X1742441Y97903D01*
X1742376Y97842D01*
X1742315Y97777D01*
X1742256Y97710D01*
X1742200Y97641D01*
X1742147Y97569D01*
X1742097Y97494D01*
X1742051Y97418D01*
X1742008Y97340D01*
X1741969Y97260D01*
X1741933Y97178D01*
X1741900Y97095D01*
X1741872Y97010D01*
X1741847Y96925D01*
X1741825Y96838D01*
X1741808Y96750D01*
X1741795Y96662D01*
X1741785Y96573D01*
X1741779Y96484D01*
X1741777Y96395D01*
X1741777Y94349D01*
X1738503Y101598D02*
X1745869Y101598D01*
X1745869Y103644D01*
X1745867Y103733D01*
X1745861Y103822D01*
X1745851Y103911D01*
X1745838Y103999D01*
X1745821Y104087D01*
X1745799Y104174D01*
X1745774Y104259D01*
X1745746Y104344D01*
X1745713Y104427D01*
X1745677Y104509D01*
X1745638Y104589D01*
X1745595Y104667D01*
X1745549Y104743D01*
X1745499Y104818D01*
X1745446Y104890D01*
X1745390Y104959D01*
X1745331Y105026D01*
X1745270Y105091D01*
X1745205Y105152D01*
X1745138Y105211D01*
X1745069Y105267D01*
X1744997Y105320D01*
X1744922Y105370D01*
X1744846Y105416D01*
X1744768Y105459D01*
X1744688Y105498D01*
X1744606Y105534D01*
X1744523Y105567D01*
X1744438Y105595D01*
X1744353Y105620D01*
X1744266Y105642D01*
X1744178Y105659D01*
X1744090Y105672D01*
X1744001Y105682D01*
X1743912Y105688D01*
X1743823Y105690D01*
X1743734Y105688D01*
X1743645Y105682D01*
X1743556Y105672D01*
X1743468Y105659D01*
X1743380Y105642D01*
X1743293Y105620D01*
X1743208Y105595D01*
X1743123Y105567D01*
X1743040Y105534D01*
X1742958Y105498D01*
X1742878Y105459D01*
X1742800Y105416D01*
X1742724Y105370D01*
X1742649Y105320D01*
X1742577Y105267D01*
X1742508Y105211D01*
X1742441Y105152D01*
X1742376Y105091D01*
X1742315Y105026D01*
X1742256Y104959D01*
X1742200Y104890D01*
X1742147Y104818D01*
X1742097Y104743D01*
X1742051Y104667D01*
X1742008Y104589D01*
X1741969Y104509D01*
X1741933Y104427D01*
X1741900Y104344D01*
X1741872Y104259D01*
X1741847Y104174D01*
X1741825Y104087D01*
X1741808Y103999D01*
X1741795Y103911D01*
X1741785Y103822D01*
X1741779Y103733D01*
X1741777Y103644D01*
X1741777Y101598D01*
X1741777Y104053D02*
X1738503Y105690D01*
X1744232Y108862D02*
X1745869Y110908D01*
X1738503Y110908D01*
X1738503Y108862D02*
X1738503Y112954D01*
X1742186Y116177D02*
X1742339Y116179D01*
X1742492Y116185D01*
X1742644Y116194D01*
X1742797Y116208D01*
X1742949Y116225D01*
X1743100Y116246D01*
X1743251Y116271D01*
X1743401Y116300D01*
X1743551Y116332D01*
X1743699Y116369D01*
X1743847Y116409D01*
X1743994Y116452D01*
X1744139Y116500D01*
X1744283Y116551D01*
X1744426Y116605D01*
X1744568Y116664D01*
X1744707Y116725D01*
X1744846Y116791D01*
X1744916Y116817D01*
X1744986Y116847D01*
X1745053Y116880D01*
X1745119Y116916D01*
X1745183Y116955D01*
X1745245Y116998D01*
X1745304Y117044D01*
X1745362Y117092D01*
X1745416Y117143D01*
X1745469Y117197D01*
X1745518Y117254D01*
X1745565Y117313D01*
X1745608Y117374D01*
X1745649Y117437D01*
X1745686Y117502D01*
X1745721Y117569D01*
X1745751Y117638D01*
X1745779Y117708D01*
X1745802Y117779D01*
X1745823Y117851D01*
X1745839Y117924D01*
X1745852Y117998D01*
X1745862Y118073D01*
X1745867Y118148D01*
X1745869Y118223D01*
X1745867Y118298D01*
X1745862Y118373D01*
X1745852Y118448D01*
X1745839Y118522D01*
X1745823Y118595D01*
X1745802Y118667D01*
X1745779Y118738D01*
X1745751Y118808D01*
X1745721Y118877D01*
X1745686Y118944D01*
X1745649Y119009D01*
X1745608Y119072D01*
X1745565Y119133D01*
X1745518Y119192D01*
X1745469Y119249D01*
X1745416Y119303D01*
X1745362Y119354D01*
X1745304Y119403D01*
X1745245Y119448D01*
X1745183Y119491D01*
X1745119Y119530D01*
X1745053Y119567D01*
X1744985Y119599D01*
X1744916Y119629D01*
X1744846Y119655D01*
X1744708Y119720D01*
X1744568Y119782D01*
X1744426Y119840D01*
X1744283Y119895D01*
X1744139Y119946D01*
X1743994Y119994D01*
X1743847Y120037D01*
X1743700Y120077D01*
X1743551Y120114D01*
X1743401Y120146D01*
X1743251Y120175D01*
X1743100Y120200D01*
X1742949Y120221D01*
X1742797Y120238D01*
X1742644Y120252D01*
X1742492Y120261D01*
X1742339Y120267D01*
X1742186Y120269D01*
X1742186Y116176D02*
X1742033Y116178D01*
X1741880Y116184D01*
X1741727Y116193D01*
X1741575Y116207D01*
X1741423Y116224D01*
X1741272Y116245D01*
X1741121Y116270D01*
X1740970Y116299D01*
X1740821Y116331D01*
X1740672Y116368D01*
X1740525Y116408D01*
X1740378Y116451D01*
X1740233Y116499D01*
X1740088Y116550D01*
X1739946Y116605D01*
X1739804Y116663D01*
X1739664Y116725D01*
X1739526Y116790D01*
X1739526Y116791D02*
X1739455Y116817D01*
X1739386Y116847D01*
X1739319Y116880D01*
X1739253Y116916D01*
X1739189Y116955D01*
X1739127Y116998D01*
X1739068Y117044D01*
X1739010Y117092D01*
X1738956Y117143D01*
X1738903Y117197D01*
X1738854Y117254D01*
X1738807Y117313D01*
X1738764Y117374D01*
X1738723Y117437D01*
X1738686Y117502D01*
X1738651Y117569D01*
X1738621Y117638D01*
X1738593Y117708D01*
X1738570Y117779D01*
X1738549Y117851D01*
X1738533Y117924D01*
X1738520Y117998D01*
X1738510Y118073D01*
X1738505Y118148D01*
X1738503Y118223D01*
X1739526Y119655D02*
X1739664Y119720D01*
X1739804Y119782D01*
X1739946Y119840D01*
X1740089Y119895D01*
X1740233Y119946D01*
X1740378Y119994D01*
X1740525Y120037D01*
X1740673Y120077D01*
X1740821Y120114D01*
X1740971Y120146D01*
X1741121Y120175D01*
X1741272Y120200D01*
X1741423Y120221D01*
X1741575Y120238D01*
X1741728Y120252D01*
X1741880Y120261D01*
X1742033Y120267D01*
X1742186Y120269D01*
X1739526Y119655D02*
X1739456Y119629D01*
X1739386Y119599D01*
X1739319Y119567D01*
X1739253Y119530D01*
X1739189Y119491D01*
X1739127Y119448D01*
X1739068Y119402D01*
X1739010Y119354D01*
X1738956Y119303D01*
X1738903Y119249D01*
X1738854Y119192D01*
X1738807Y119133D01*
X1738764Y119072D01*
X1738723Y119009D01*
X1738686Y118944D01*
X1738651Y118877D01*
X1738621Y118808D01*
X1738593Y118738D01*
X1738570Y118667D01*
X1738549Y118595D01*
X1738533Y118522D01*
X1738520Y118448D01*
X1738510Y118373D01*
X1738505Y118298D01*
X1738503Y118223D01*
X1740140Y116586D02*
X1744232Y119860D01*
X1776603Y81403D02*
X1783969Y81403D01*
X1783969Y79357D02*
X1783969Y83449D01*
X1776603Y86444D02*
X1776603Y89718D01*
X1776603Y86444D02*
X1783969Y86444D01*
X1783969Y89718D01*
X1780695Y88899D02*
X1780695Y86444D01*
X1783969Y92847D02*
X1776603Y92847D01*
X1779877Y95302D02*
X1783969Y92847D01*
X1779877Y95302D02*
X1783969Y97757D01*
X1776603Y97757D01*
X1776603Y101664D02*
X1783969Y101664D01*
X1783969Y103710D01*
X1783967Y103799D01*
X1783961Y103888D01*
X1783951Y103977D01*
X1783938Y104065D01*
X1783921Y104153D01*
X1783899Y104240D01*
X1783874Y104325D01*
X1783846Y104410D01*
X1783813Y104493D01*
X1783777Y104575D01*
X1783738Y104655D01*
X1783695Y104733D01*
X1783649Y104809D01*
X1783599Y104884D01*
X1783546Y104956D01*
X1783490Y105025D01*
X1783431Y105092D01*
X1783370Y105157D01*
X1783305Y105218D01*
X1783238Y105277D01*
X1783169Y105333D01*
X1783097Y105386D01*
X1783022Y105436D01*
X1782946Y105482D01*
X1782868Y105525D01*
X1782788Y105564D01*
X1782706Y105600D01*
X1782623Y105633D01*
X1782538Y105661D01*
X1782453Y105686D01*
X1782366Y105708D01*
X1782278Y105725D01*
X1782190Y105738D01*
X1782101Y105748D01*
X1782012Y105754D01*
X1781923Y105756D01*
X1781834Y105754D01*
X1781745Y105748D01*
X1781656Y105738D01*
X1781568Y105725D01*
X1781480Y105708D01*
X1781393Y105686D01*
X1781308Y105661D01*
X1781223Y105633D01*
X1781140Y105600D01*
X1781058Y105564D01*
X1780978Y105525D01*
X1780900Y105482D01*
X1780824Y105436D01*
X1780749Y105386D01*
X1780677Y105333D01*
X1780608Y105277D01*
X1780541Y105218D01*
X1780476Y105157D01*
X1780415Y105092D01*
X1780356Y105025D01*
X1780300Y104956D01*
X1780247Y104884D01*
X1780197Y104809D01*
X1780151Y104733D01*
X1780108Y104655D01*
X1780069Y104575D01*
X1780033Y104493D01*
X1780000Y104410D01*
X1779972Y104325D01*
X1779947Y104240D01*
X1779925Y104153D01*
X1779908Y104065D01*
X1779895Y103977D01*
X1779885Y103888D01*
X1779879Y103799D01*
X1779877Y103710D01*
X1779877Y101664D01*
X1776603Y108913D02*
X1783969Y108913D01*
X1783969Y110959D01*
X1783967Y111048D01*
X1783961Y111137D01*
X1783951Y111226D01*
X1783938Y111314D01*
X1783921Y111402D01*
X1783899Y111489D01*
X1783874Y111574D01*
X1783846Y111659D01*
X1783813Y111742D01*
X1783777Y111824D01*
X1783738Y111904D01*
X1783695Y111982D01*
X1783649Y112058D01*
X1783599Y112133D01*
X1783546Y112205D01*
X1783490Y112274D01*
X1783431Y112341D01*
X1783370Y112406D01*
X1783305Y112467D01*
X1783238Y112526D01*
X1783169Y112582D01*
X1783097Y112635D01*
X1783022Y112685D01*
X1782946Y112731D01*
X1782868Y112774D01*
X1782788Y112813D01*
X1782706Y112849D01*
X1782623Y112882D01*
X1782538Y112910D01*
X1782453Y112935D01*
X1782366Y112957D01*
X1782278Y112974D01*
X1782190Y112987D01*
X1782101Y112997D01*
X1782012Y113003D01*
X1781923Y113005D01*
X1781834Y113003D01*
X1781745Y112997D01*
X1781656Y112987D01*
X1781568Y112974D01*
X1781480Y112957D01*
X1781393Y112935D01*
X1781308Y112910D01*
X1781223Y112882D01*
X1781140Y112849D01*
X1781058Y112813D01*
X1780978Y112774D01*
X1780900Y112731D01*
X1780824Y112685D01*
X1780749Y112635D01*
X1780677Y112582D01*
X1780608Y112526D01*
X1780541Y112467D01*
X1780476Y112406D01*
X1780415Y112341D01*
X1780356Y112274D01*
X1780300Y112205D01*
X1780247Y112133D01*
X1780197Y112058D01*
X1780151Y111982D01*
X1780108Y111904D01*
X1780069Y111824D01*
X1780033Y111742D01*
X1780000Y111659D01*
X1779972Y111574D01*
X1779947Y111489D01*
X1779925Y111402D01*
X1779908Y111314D01*
X1779895Y111226D01*
X1779885Y111137D01*
X1779879Y111048D01*
X1779877Y110959D01*
X1779877Y108913D01*
X1779877Y111368D02*
X1776603Y113005D01*
X1779877Y117814D02*
X1779877Y120269D01*
X1779877Y117814D02*
X1779879Y117736D01*
X1779884Y117658D01*
X1779894Y117581D01*
X1779907Y117504D01*
X1779923Y117428D01*
X1779943Y117353D01*
X1779967Y117279D01*
X1779994Y117206D01*
X1780025Y117134D01*
X1780059Y117064D01*
X1780096Y116995D01*
X1780137Y116929D01*
X1780181Y116864D01*
X1780227Y116802D01*
X1780277Y116742D01*
X1780329Y116684D01*
X1780384Y116629D01*
X1780442Y116577D01*
X1780502Y116527D01*
X1780564Y116481D01*
X1780629Y116437D01*
X1780696Y116396D01*
X1780764Y116359D01*
X1780834Y116325D01*
X1780906Y116294D01*
X1780979Y116267D01*
X1781053Y116243D01*
X1781128Y116223D01*
X1781204Y116207D01*
X1781281Y116194D01*
X1781358Y116184D01*
X1781436Y116179D01*
X1781514Y116177D01*
X1781923Y116177D01*
X1782012Y116179D01*
X1782101Y116185D01*
X1782190Y116195D01*
X1782278Y116208D01*
X1782366Y116225D01*
X1782453Y116247D01*
X1782538Y116272D01*
X1782623Y116300D01*
X1782706Y116333D01*
X1782788Y116369D01*
X1782868Y116408D01*
X1782946Y116451D01*
X1783022Y116497D01*
X1783097Y116547D01*
X1783169Y116600D01*
X1783238Y116656D01*
X1783305Y116715D01*
X1783370Y116776D01*
X1783431Y116841D01*
X1783490Y116908D01*
X1783546Y116977D01*
X1783599Y117049D01*
X1783649Y117124D01*
X1783695Y117200D01*
X1783738Y117278D01*
X1783777Y117358D01*
X1783813Y117440D01*
X1783846Y117523D01*
X1783874Y117608D01*
X1783899Y117693D01*
X1783921Y117780D01*
X1783938Y117868D01*
X1783951Y117956D01*
X1783961Y118045D01*
X1783967Y118134D01*
X1783969Y118223D01*
X1783967Y118312D01*
X1783961Y118401D01*
X1783951Y118490D01*
X1783938Y118578D01*
X1783921Y118666D01*
X1783899Y118753D01*
X1783874Y118838D01*
X1783846Y118923D01*
X1783813Y119006D01*
X1783777Y119088D01*
X1783738Y119168D01*
X1783695Y119246D01*
X1783649Y119322D01*
X1783599Y119397D01*
X1783546Y119469D01*
X1783490Y119538D01*
X1783431Y119605D01*
X1783370Y119670D01*
X1783305Y119731D01*
X1783238Y119790D01*
X1783169Y119846D01*
X1783097Y119899D01*
X1783022Y119949D01*
X1782946Y119995D01*
X1782868Y120038D01*
X1782788Y120077D01*
X1782706Y120113D01*
X1782623Y120146D01*
X1782538Y120174D01*
X1782453Y120199D01*
X1782366Y120221D01*
X1782278Y120238D01*
X1782190Y120251D01*
X1782101Y120261D01*
X1782012Y120267D01*
X1781923Y120269D01*
X1779877Y120269D01*
X1779765Y120267D01*
X1779654Y120261D01*
X1779542Y120252D01*
X1779431Y120239D01*
X1779321Y120221D01*
X1779211Y120201D01*
X1779102Y120176D01*
X1778994Y120148D01*
X1778887Y120116D01*
X1778781Y120080D01*
X1778676Y120041D01*
X1778573Y119998D01*
X1778471Y119952D01*
X1778371Y119902D01*
X1778272Y119849D01*
X1778176Y119792D01*
X1778081Y119733D01*
X1777989Y119670D01*
X1777899Y119604D01*
X1777811Y119535D01*
X1777725Y119463D01*
X1777642Y119388D01*
X1777562Y119310D01*
X1777484Y119230D01*
X1777409Y119147D01*
X1777337Y119061D01*
X1777268Y118973D01*
X1777202Y118883D01*
X1777139Y118791D01*
X1777080Y118696D01*
X1777023Y118600D01*
X1776970Y118501D01*
X1776920Y118401D01*
X1776874Y118299D01*
X1776831Y118196D01*
X1776792Y118091D01*
X1776756Y117985D01*
X1776724Y117878D01*
X1776696Y117770D01*
X1776671Y117661D01*
X1776651Y117551D01*
X1776633Y117441D01*
X1776620Y117330D01*
X1776611Y117218D01*
X1776605Y117107D01*
X1776603Y116995D01*
M02*
